M48
; DRILL file {KiCad (5.1.6)-1} date 08/26/20 09:56:33
; FORMAT={-:-/ absolute / inch / decimal}
; #@! TF.CreationDate,2020-08-26T09:56:33+01:00
; #@! TF.GenerationSoftware,Kicad,Pcbnew,(5.1.6)-1
FMAT,2
INCH
T1C0.0157
T2C0.0400
T3C0.0531
T4C0.0591
T5C0.0866
T6C0.0669
T7C0.1575
%
G90
G05
T1
X1.9291Y-3.3071
X1.9291Y-4.0945
X4.0827Y-2.5748
X4.1732Y-3.0709
X4.1732Y-3.2283
X4.8583Y-2.5512
X2.3524Y-4.2126
X2.3714Y-4.1667
X2.3714Y-4.2585
X2.4173Y-4.1476
X2.4173Y-4.2776
X2.4633Y-4.1667
X2.4633Y-4.2585
X2.4823Y-4.2126
X4.7106Y-3.3425
X4.7297Y-3.2966
X4.7297Y-3.3885
X4.7756Y-3.2776
X4.7756Y-3.4075
X4.8215Y-3.2966
X4.8215Y-3.3885
X4.8406Y-3.3425
X2.3602Y-2.7795
X2.3793Y-2.7336
X2.3793Y-2.8255
X2.4252Y-2.7146
X2.4252Y-2.8445
X2.4711Y-2.7336
X2.4711Y-2.8255
X2.4902Y-2.7795
X4.9862Y-5.1575
X5.0052Y-5.1115
X5.0052Y-5.2034
X5.0512Y-5.0925
X5.0512Y-5.2224
X5.0971Y-5.1115
X5.0971Y-5.2034
X5.1161Y-5.1575
X3.4902Y-3.9213
X3.5092Y-3.8753
X3.5092Y-3.9672
X3.5551Y-3.8563
X3.5551Y-3.9862
X3.6011Y-3.8753
X3.6011Y-3.9672
X3.6201Y-3.9213
T2
X2.4016Y-3.7157
X2.4016Y-4.0157
X5.0Y-5.3299
X5.0Y-5.6299
X3.2283Y-2.7512
X3.2283Y-3.0512
X3.1299Y-4.2472
X3.1299Y-4.5472
X3.1299Y-2.7512
X3.1299Y-3.0512
X3.1299Y-3.4992
X3.1299Y-3.7992
X4.0063Y-2.6181
X4.0063Y-2.7181
X4.0063Y-2.8181
X4.0063Y-2.9181
X4.0063Y-3.0181
X4.0063Y-3.1181
X4.0063Y-3.2181
X4.0063Y-3.3181
X4.0063Y-3.4181
X4.0063Y-3.5181
X4.0063Y-3.6181
X4.0063Y-3.7181
X4.6063Y-2.6181
X4.6063Y-2.7181
X4.6063Y-2.8181
X4.6063Y-2.9181
X4.6063Y-3.0181
X4.6063Y-3.1181
X4.6063Y-3.2181
X4.6063Y-3.3181
X4.6063Y-3.4181
X4.6063Y-3.5181
X4.6063Y-3.6181
X4.6063Y-3.7181
X4.7244Y-4.2276
X4.7244Y-4.5276
X4.7441Y-3.5386
X4.7441Y-3.8386
X3.2283Y-4.2472
X3.2283Y-4.5472
X3.878Y-2.7512
X3.878Y-3.0512
X5.1181Y-5.3299
X5.1181Y-5.6299
X2.3819Y-2.9283
X2.3819Y-3.2283
X3.9764Y-4.2472
X3.9764Y-4.5472
X4.7441Y-2.7906
X4.7441Y-3.0906
X3.878Y-3.4992
X3.878Y-3.7992
X2.4016Y-4.4638
X2.4016Y-4.7638
X4.252Y-5.2118
X4.252Y-5.5118
X3.2283Y-3.4992
X3.2283Y-3.7992
T3
X5.0Y-2.2835
X5.0Y-2.5197
X5.1378Y-2.2835
X5.1378Y-2.5197
X5.2638Y-2.2835
X5.2638Y-2.5197
T4
X3.4016Y-4.196
X3.4516Y-4.096
X3.6516Y-4.096
X3.7016Y-4.196
X5.2766Y-5.321
X5.3266Y-5.221
X5.5266Y-5.221
X5.5766Y-5.321
X4.5266Y-5.321
X4.5766Y-5.221
X4.7766Y-5.221
X4.8266Y-5.321
X4.1516Y-3.5435
X4.2016Y-3.4435
X4.4016Y-3.4435
X4.4516Y-3.5435
X3.4016Y-3.446
X3.4516Y-3.346
X3.6516Y-3.346
X3.7016Y-3.446
X3.7766Y-5.231
X3.8266Y-5.131
X4.0266Y-5.131
X4.0766Y-5.231
X2.6516Y-4.2935
X2.7016Y-4.1935
X2.9016Y-4.1935
X2.9516Y-4.2935
X4.9016Y-3.6335
X4.9516Y-3.5335
X5.1516Y-3.5335
X5.2016Y-3.6335
X1.9016Y-2.981
X1.9516Y-2.881
X2.1516Y-2.881
X2.2016Y-2.981
X4.9016Y-2.8835
X4.9516Y-2.7835
X5.1516Y-2.7835
X5.2016Y-2.8835
X2.6516Y-2.7935
X2.7016Y-2.6935
X2.9016Y-2.6935
X2.9516Y-2.7935
X1.9016Y-3.731
X1.9516Y-3.631
X2.1516Y-3.631
X2.2016Y-3.731
X1.9016Y-4.481
X1.9516Y-4.381
X2.1516Y-4.381
X2.2016Y-4.481
X4.1516Y-2.7935
X4.2016Y-2.6935
X4.4016Y-2.6935
X4.4516Y-2.7935
X3.4016Y-2.696
X3.4516Y-2.596
X3.6516Y-2.596
X3.7016Y-2.696
X2.6516Y-3.5435
X2.7016Y-3.4435
X2.9016Y-3.4435
X2.9516Y-3.5435
X4.1516Y-4.2935
X4.2016Y-4.1935
X4.4016Y-4.1935
X4.4516Y-4.2935
X4.9016Y-4.3835
X4.9516Y-4.2835
X5.1516Y-4.2835
X5.2016Y-4.3835
T5
X2.4173Y-4.2126
X4.7756Y-3.3425
X2.4252Y-2.7795
X5.0512Y-5.1575
X3.5551Y-3.9213
T6
X2.6016Y-2.8935
X3.0016Y-2.8935
X1.8516Y-3.831
X2.2516Y-3.831
X1.8516Y-4.581
X2.2516Y-4.581
X4.1016Y-2.8935
X4.5016Y-2.8935
X3.3516Y-2.796
X3.7516Y-2.796
X2.6016Y-3.6435
X3.0016Y-3.6435
X4.1016Y-4.3935
X4.5016Y-4.3935
X4.8516Y-4.4835
X5.2516Y-4.4835
X3.3516Y-4.296
X3.7516Y-4.296
X5.2266Y-5.421
X5.6266Y-5.421
X4.4766Y-5.421
X4.8766Y-5.421
X4.1016Y-3.6435
X4.5016Y-3.6435
X3.3516Y-3.546
X3.7516Y-3.546
X3.7266Y-5.331
X4.1266Y-5.331
X2.6016Y-4.3935
X3.0016Y-4.3935
X4.8516Y-3.7335
X5.2516Y-3.7335
X1.8516Y-3.081
X2.2516Y-3.081
X4.8516Y-2.9835
X5.2516Y-2.9835
X5.0Y-2.4016
X5.2362Y-2.4016
T7
X4.3016Y-3.6435
X3.5516Y-3.546
X3.9266Y-5.331
X2.8016Y-4.3935
X5.0516Y-3.7335
X2.0516Y-3.081
X5.0516Y-2.9835
X2.8016Y-2.8935
X2.0516Y-3.831
X2.0516Y-4.581
X4.3016Y-2.8935
X3.5516Y-2.796
X2.8016Y-3.6435
X4.3016Y-4.3935
X5.0516Y-4.4835
X3.5516Y-4.296
X5.4266Y-5.421
X4.6766Y-5.421
T0
M30
