%TF.GenerationSoftware,KiCad,Pcbnew,(5.1.6)-1*%
%TF.CreationDate,2020-08-26T09:56:27+01:00*%
%TF.ProjectId,Fission,46697373-696f-46e2-9e6b-696361645f70,rev?*%
%TF.SameCoordinates,Original*%
%TF.FileFunction,Soldermask,Top*%
%TF.FilePolarity,Negative*%
%FSLAX46Y46*%
G04 Gerber Fmt 4.6, Leading zero omitted, Abs format (unit mm)*
G04 Created by KiCad (PCBNEW (5.1.6)-1) date 2020-08-26 09:56:27*
%MOMM*%
%LPD*%
G01*
G04 APERTURE LIST*
%ADD10C,0.800000*%
%ADD11C,4.500000*%
%ADD12C,0.100000*%
%ADD13R,1.800000X1.800000*%
%ADD14C,1.800000*%
%ADD15C,2.600000*%
%ADD16C,1.624000*%
%ADD17C,2.300000*%
%ADD18C,4.100000*%
G04 APERTURE END LIST*
D10*
%TO.C,H5*%
X129466726Y-129833274D03*
X128300000Y-129350000D03*
X127133274Y-129833274D03*
X126650000Y-131000000D03*
X127133274Y-132166726D03*
X128300000Y-132650000D03*
X129466726Y-132166726D03*
X129950000Y-131000000D03*
D11*
X128300000Y-131000000D03*
%TD*%
D12*
%TO.C,D18*%
G36*
X130047001Y-134473274D02*
G01*
X130130796Y-134481528D01*
X130135649Y-134482248D01*
X130218231Y-134498674D01*
X130222991Y-134499866D01*
X130303565Y-134524308D01*
X130308185Y-134525961D01*
X130385976Y-134558183D01*
X130390412Y-134560281D01*
X130464670Y-134599973D01*
X130468878Y-134602495D01*
X130538888Y-134649274D01*
X130542830Y-134652197D01*
X130607918Y-134705613D01*
X130611553Y-134708909D01*
X130671091Y-134768447D01*
X130674387Y-134772082D01*
X130727803Y-134837170D01*
X130730726Y-134841112D01*
X130777505Y-134911122D01*
X130780027Y-134915330D01*
X130819719Y-134989588D01*
X130821817Y-134994024D01*
X130854039Y-135071815D01*
X130855692Y-135076435D01*
X130880134Y-135157009D01*
X130881326Y-135161769D01*
X130897752Y-135244351D01*
X130898472Y-135249204D01*
X130906726Y-135332999D01*
X130906967Y-135337900D01*
X130906967Y-135422100D01*
X130906726Y-135427001D01*
X130898472Y-135510796D01*
X130897752Y-135515649D01*
X130881326Y-135598231D01*
X130880134Y-135602991D01*
X130855692Y-135683565D01*
X130854039Y-135688185D01*
X130821817Y-135765976D01*
X130819719Y-135770412D01*
X130800000Y-135807303D01*
X130800000Y-138190000D01*
X130799039Y-138199755D01*
X130796194Y-138209134D01*
X130791573Y-138217779D01*
X130785355Y-138225355D01*
X130777779Y-138231573D01*
X130769134Y-138236194D01*
X130759755Y-138239039D01*
X130750000Y-138240000D01*
X129250000Y-138240000D01*
X129240245Y-138239039D01*
X129230866Y-138236194D01*
X129222221Y-138231573D01*
X129214645Y-138225355D01*
X129208427Y-138217779D01*
X129203806Y-138209134D01*
X129200961Y-138199755D01*
X129200000Y-138190000D01*
X129200000Y-135807303D01*
X129180281Y-135770412D01*
X129178183Y-135765976D01*
X129145961Y-135688185D01*
X129144308Y-135683565D01*
X129119866Y-135602991D01*
X129118674Y-135598231D01*
X129102248Y-135515649D01*
X129101528Y-135510796D01*
X129093274Y-135427001D01*
X129093033Y-135422100D01*
X129093033Y-135337900D01*
X129093274Y-135332999D01*
X129101528Y-135249204D01*
X129102248Y-135244351D01*
X129118674Y-135161769D01*
X129119866Y-135157009D01*
X129144308Y-135076435D01*
X129145961Y-135071815D01*
X129178183Y-134994024D01*
X129180281Y-134989588D01*
X129219973Y-134915330D01*
X129222495Y-134911122D01*
X129269274Y-134841112D01*
X129272197Y-134837170D01*
X129325613Y-134772082D01*
X129328909Y-134768447D01*
X129388447Y-134708909D01*
X129392082Y-134705613D01*
X129457170Y-134652197D01*
X129461112Y-134649274D01*
X129531122Y-134602495D01*
X129535330Y-134599973D01*
X129609588Y-134560281D01*
X129614024Y-134558183D01*
X129691815Y-134525961D01*
X129696435Y-134524308D01*
X129777009Y-134499866D01*
X129781769Y-134498674D01*
X129864351Y-134482248D01*
X129869204Y-134481528D01*
X129952999Y-134473274D01*
X129957900Y-134473033D01*
X130042100Y-134473033D01*
X130047001Y-134473274D01*
G37*
G36*
X129952999Y-143906726D02*
G01*
X129869204Y-143898472D01*
X129864351Y-143897752D01*
X129781769Y-143881326D01*
X129777009Y-143880134D01*
X129696435Y-143855692D01*
X129691815Y-143854039D01*
X129614024Y-143821817D01*
X129609588Y-143819719D01*
X129535330Y-143780027D01*
X129531122Y-143777505D01*
X129461112Y-143730726D01*
X129457170Y-143727803D01*
X129392082Y-143674387D01*
X129388447Y-143671091D01*
X129328909Y-143611553D01*
X129325613Y-143607918D01*
X129272197Y-143542830D01*
X129269274Y-143538888D01*
X129222495Y-143468878D01*
X129219973Y-143464670D01*
X129180281Y-143390412D01*
X129178183Y-143385976D01*
X129145961Y-143308185D01*
X129144308Y-143303565D01*
X129119866Y-143222991D01*
X129118674Y-143218231D01*
X129102248Y-143135649D01*
X129101528Y-143130796D01*
X129093274Y-143047001D01*
X129093033Y-143042100D01*
X129093033Y-142957900D01*
X129093274Y-142952999D01*
X129101528Y-142869204D01*
X129102248Y-142864351D01*
X129118674Y-142781769D01*
X129119866Y-142777009D01*
X129144308Y-142696435D01*
X129145961Y-142691815D01*
X129178183Y-142614024D01*
X129180281Y-142609588D01*
X129200000Y-142572697D01*
X129200000Y-140190000D01*
X129200961Y-140180245D01*
X129203806Y-140170866D01*
X129208427Y-140162221D01*
X129214645Y-140154645D01*
X129222221Y-140148427D01*
X129230866Y-140143806D01*
X129240245Y-140140961D01*
X129250000Y-140140000D01*
X130750000Y-140140000D01*
X130759755Y-140140961D01*
X130769134Y-140143806D01*
X130777779Y-140148427D01*
X130785355Y-140154645D01*
X130791573Y-140162221D01*
X130796194Y-140170866D01*
X130799039Y-140180245D01*
X130800000Y-140190000D01*
X130800000Y-142572697D01*
X130819719Y-142609588D01*
X130821817Y-142614024D01*
X130854039Y-142691815D01*
X130855692Y-142696435D01*
X130880134Y-142777009D01*
X130881326Y-142781769D01*
X130897752Y-142864351D01*
X130898472Y-142869204D01*
X130906726Y-142952999D01*
X130906967Y-142957900D01*
X130906967Y-143042100D01*
X130906726Y-143047001D01*
X130898472Y-143130796D01*
X130897752Y-143135649D01*
X130881326Y-143218231D01*
X130880134Y-143222991D01*
X130855692Y-143303565D01*
X130854039Y-143308185D01*
X130821817Y-143385976D01*
X130819719Y-143390412D01*
X130780027Y-143464670D01*
X130777505Y-143468878D01*
X130730726Y-143538888D01*
X130727803Y-143542830D01*
X130674387Y-143607918D01*
X130671091Y-143611553D01*
X130611553Y-143671091D01*
X130607918Y-143674387D01*
X130542830Y-143727803D01*
X130538888Y-143730726D01*
X130468878Y-143777505D01*
X130464670Y-143780027D01*
X130390412Y-143819719D01*
X130385976Y-143821817D01*
X130308185Y-143854039D01*
X130303565Y-143855692D01*
X130222991Y-143880134D01*
X130218231Y-143881326D01*
X130135649Y-143897752D01*
X130130796Y-143898472D01*
X130047001Y-143906726D01*
X130042100Y-143906967D01*
X129957900Y-143906967D01*
X129952999Y-143906726D01*
G37*
%TD*%
%TO.C,D17*%
G36*
X127047001Y-134473274D02*
G01*
X127130796Y-134481528D01*
X127135649Y-134482248D01*
X127218231Y-134498674D01*
X127222991Y-134499866D01*
X127303565Y-134524308D01*
X127308185Y-134525961D01*
X127385976Y-134558183D01*
X127390412Y-134560281D01*
X127464670Y-134599973D01*
X127468878Y-134602495D01*
X127538888Y-134649274D01*
X127542830Y-134652197D01*
X127607918Y-134705613D01*
X127611553Y-134708909D01*
X127671091Y-134768447D01*
X127674387Y-134772082D01*
X127727803Y-134837170D01*
X127730726Y-134841112D01*
X127777505Y-134911122D01*
X127780027Y-134915330D01*
X127819719Y-134989588D01*
X127821817Y-134994024D01*
X127854039Y-135071815D01*
X127855692Y-135076435D01*
X127880134Y-135157009D01*
X127881326Y-135161769D01*
X127897752Y-135244351D01*
X127898472Y-135249204D01*
X127906726Y-135332999D01*
X127906967Y-135337900D01*
X127906967Y-135422100D01*
X127906726Y-135427001D01*
X127898472Y-135510796D01*
X127897752Y-135515649D01*
X127881326Y-135598231D01*
X127880134Y-135602991D01*
X127855692Y-135683565D01*
X127854039Y-135688185D01*
X127821817Y-135765976D01*
X127819719Y-135770412D01*
X127800000Y-135807303D01*
X127800000Y-138190000D01*
X127799039Y-138199755D01*
X127796194Y-138209134D01*
X127791573Y-138217779D01*
X127785355Y-138225355D01*
X127777779Y-138231573D01*
X127769134Y-138236194D01*
X127759755Y-138239039D01*
X127750000Y-138240000D01*
X126250000Y-138240000D01*
X126240245Y-138239039D01*
X126230866Y-138236194D01*
X126222221Y-138231573D01*
X126214645Y-138225355D01*
X126208427Y-138217779D01*
X126203806Y-138209134D01*
X126200961Y-138199755D01*
X126200000Y-138190000D01*
X126200000Y-135807303D01*
X126180281Y-135770412D01*
X126178183Y-135765976D01*
X126145961Y-135688185D01*
X126144308Y-135683565D01*
X126119866Y-135602991D01*
X126118674Y-135598231D01*
X126102248Y-135515649D01*
X126101528Y-135510796D01*
X126093274Y-135427001D01*
X126093033Y-135422100D01*
X126093033Y-135337900D01*
X126093274Y-135332999D01*
X126101528Y-135249204D01*
X126102248Y-135244351D01*
X126118674Y-135161769D01*
X126119866Y-135157009D01*
X126144308Y-135076435D01*
X126145961Y-135071815D01*
X126178183Y-134994024D01*
X126180281Y-134989588D01*
X126219973Y-134915330D01*
X126222495Y-134911122D01*
X126269274Y-134841112D01*
X126272197Y-134837170D01*
X126325613Y-134772082D01*
X126328909Y-134768447D01*
X126388447Y-134708909D01*
X126392082Y-134705613D01*
X126457170Y-134652197D01*
X126461112Y-134649274D01*
X126531122Y-134602495D01*
X126535330Y-134599973D01*
X126609588Y-134560281D01*
X126614024Y-134558183D01*
X126691815Y-134525961D01*
X126696435Y-134524308D01*
X126777009Y-134499866D01*
X126781769Y-134498674D01*
X126864351Y-134482248D01*
X126869204Y-134481528D01*
X126952999Y-134473274D01*
X126957900Y-134473033D01*
X127042100Y-134473033D01*
X127047001Y-134473274D01*
G37*
G36*
X126952999Y-143906726D02*
G01*
X126869204Y-143898472D01*
X126864351Y-143897752D01*
X126781769Y-143881326D01*
X126777009Y-143880134D01*
X126696435Y-143855692D01*
X126691815Y-143854039D01*
X126614024Y-143821817D01*
X126609588Y-143819719D01*
X126535330Y-143780027D01*
X126531122Y-143777505D01*
X126461112Y-143730726D01*
X126457170Y-143727803D01*
X126392082Y-143674387D01*
X126388447Y-143671091D01*
X126328909Y-143611553D01*
X126325613Y-143607918D01*
X126272197Y-143542830D01*
X126269274Y-143538888D01*
X126222495Y-143468878D01*
X126219973Y-143464670D01*
X126180281Y-143390412D01*
X126178183Y-143385976D01*
X126145961Y-143308185D01*
X126144308Y-143303565D01*
X126119866Y-143222991D01*
X126118674Y-143218231D01*
X126102248Y-143135649D01*
X126101528Y-143130796D01*
X126093274Y-143047001D01*
X126093033Y-143042100D01*
X126093033Y-142957900D01*
X126093274Y-142952999D01*
X126101528Y-142869204D01*
X126102248Y-142864351D01*
X126118674Y-142781769D01*
X126119866Y-142777009D01*
X126144308Y-142696435D01*
X126145961Y-142691815D01*
X126178183Y-142614024D01*
X126180281Y-142609588D01*
X126200000Y-142572697D01*
X126200000Y-140190000D01*
X126200961Y-140180245D01*
X126203806Y-140170866D01*
X126208427Y-140162221D01*
X126214645Y-140154645D01*
X126222221Y-140148427D01*
X126230866Y-140143806D01*
X126240245Y-140140961D01*
X126250000Y-140140000D01*
X127750000Y-140140000D01*
X127759755Y-140140961D01*
X127769134Y-140143806D01*
X127777779Y-140148427D01*
X127785355Y-140154645D01*
X127791573Y-140162221D01*
X127796194Y-140170866D01*
X127799039Y-140180245D01*
X127800000Y-140190000D01*
X127800000Y-142572697D01*
X127819719Y-142609588D01*
X127821817Y-142614024D01*
X127854039Y-142691815D01*
X127855692Y-142696435D01*
X127880134Y-142777009D01*
X127881326Y-142781769D01*
X127897752Y-142864351D01*
X127898472Y-142869204D01*
X127906726Y-142952999D01*
X127906967Y-142957900D01*
X127906967Y-143042100D01*
X127906726Y-143047001D01*
X127898472Y-143130796D01*
X127897752Y-143135649D01*
X127881326Y-143218231D01*
X127880134Y-143222991D01*
X127855692Y-143303565D01*
X127854039Y-143308185D01*
X127821817Y-143385976D01*
X127819719Y-143390412D01*
X127780027Y-143464670D01*
X127777505Y-143468878D01*
X127730726Y-143538888D01*
X127727803Y-143542830D01*
X127674387Y-143607918D01*
X127671091Y-143611553D01*
X127611553Y-143671091D01*
X127607918Y-143674387D01*
X127542830Y-143727803D01*
X127538888Y-143730726D01*
X127468878Y-143777505D01*
X127464670Y-143780027D01*
X127390412Y-143819719D01*
X127385976Y-143821817D01*
X127308185Y-143854039D01*
X127303565Y-143855692D01*
X127222991Y-143880134D01*
X127218231Y-143881326D01*
X127135649Y-143897752D01*
X127130796Y-143898472D01*
X127047001Y-143906726D01*
X127042100Y-143906967D01*
X126957900Y-143906967D01*
X126952999Y-143906726D01*
G37*
%TD*%
%TO.C,D16*%
G36*
X108047001Y-131473274D02*
G01*
X108130796Y-131481528D01*
X108135649Y-131482248D01*
X108218231Y-131498674D01*
X108222991Y-131499866D01*
X108303565Y-131524308D01*
X108308185Y-131525961D01*
X108385976Y-131558183D01*
X108390412Y-131560281D01*
X108464670Y-131599973D01*
X108468878Y-131602495D01*
X108538888Y-131649274D01*
X108542830Y-131652197D01*
X108607918Y-131705613D01*
X108611553Y-131708909D01*
X108671091Y-131768447D01*
X108674387Y-131772082D01*
X108727803Y-131837170D01*
X108730726Y-131841112D01*
X108777505Y-131911122D01*
X108780027Y-131915330D01*
X108819719Y-131989588D01*
X108821817Y-131994024D01*
X108854039Y-132071815D01*
X108855692Y-132076435D01*
X108880134Y-132157009D01*
X108881326Y-132161769D01*
X108897752Y-132244351D01*
X108898472Y-132249204D01*
X108906726Y-132332999D01*
X108906967Y-132337900D01*
X108906967Y-132422100D01*
X108906726Y-132427001D01*
X108898472Y-132510796D01*
X108897752Y-132515649D01*
X108881326Y-132598231D01*
X108880134Y-132602991D01*
X108855692Y-132683565D01*
X108854039Y-132688185D01*
X108821817Y-132765976D01*
X108819719Y-132770412D01*
X108800000Y-132807303D01*
X108800000Y-135190000D01*
X108799039Y-135199755D01*
X108796194Y-135209134D01*
X108791573Y-135217779D01*
X108785355Y-135225355D01*
X108777779Y-135231573D01*
X108769134Y-135236194D01*
X108759755Y-135239039D01*
X108750000Y-135240000D01*
X107250000Y-135240000D01*
X107240245Y-135239039D01*
X107230866Y-135236194D01*
X107222221Y-135231573D01*
X107214645Y-135225355D01*
X107208427Y-135217779D01*
X107203806Y-135209134D01*
X107200961Y-135199755D01*
X107200000Y-135190000D01*
X107200000Y-132807303D01*
X107180281Y-132770412D01*
X107178183Y-132765976D01*
X107145961Y-132688185D01*
X107144308Y-132683565D01*
X107119866Y-132602991D01*
X107118674Y-132598231D01*
X107102248Y-132515649D01*
X107101528Y-132510796D01*
X107093274Y-132427001D01*
X107093033Y-132422100D01*
X107093033Y-132337900D01*
X107093274Y-132332999D01*
X107101528Y-132249204D01*
X107102248Y-132244351D01*
X107118674Y-132161769D01*
X107119866Y-132157009D01*
X107144308Y-132076435D01*
X107145961Y-132071815D01*
X107178183Y-131994024D01*
X107180281Y-131989588D01*
X107219973Y-131915330D01*
X107222495Y-131911122D01*
X107269274Y-131841112D01*
X107272197Y-131837170D01*
X107325613Y-131772082D01*
X107328909Y-131768447D01*
X107388447Y-131708909D01*
X107392082Y-131705613D01*
X107457170Y-131652197D01*
X107461112Y-131649274D01*
X107531122Y-131602495D01*
X107535330Y-131599973D01*
X107609588Y-131560281D01*
X107614024Y-131558183D01*
X107691815Y-131525961D01*
X107696435Y-131524308D01*
X107777009Y-131499866D01*
X107781769Y-131498674D01*
X107864351Y-131482248D01*
X107869204Y-131481528D01*
X107952999Y-131473274D01*
X107957900Y-131473033D01*
X108042100Y-131473033D01*
X108047001Y-131473274D01*
G37*
G36*
X107952999Y-140906726D02*
G01*
X107869204Y-140898472D01*
X107864351Y-140897752D01*
X107781769Y-140881326D01*
X107777009Y-140880134D01*
X107696435Y-140855692D01*
X107691815Y-140854039D01*
X107614024Y-140821817D01*
X107609588Y-140819719D01*
X107535330Y-140780027D01*
X107531122Y-140777505D01*
X107461112Y-140730726D01*
X107457170Y-140727803D01*
X107392082Y-140674387D01*
X107388447Y-140671091D01*
X107328909Y-140611553D01*
X107325613Y-140607918D01*
X107272197Y-140542830D01*
X107269274Y-140538888D01*
X107222495Y-140468878D01*
X107219973Y-140464670D01*
X107180281Y-140390412D01*
X107178183Y-140385976D01*
X107145961Y-140308185D01*
X107144308Y-140303565D01*
X107119866Y-140222991D01*
X107118674Y-140218231D01*
X107102248Y-140135649D01*
X107101528Y-140130796D01*
X107093274Y-140047001D01*
X107093033Y-140042100D01*
X107093033Y-139957900D01*
X107093274Y-139952999D01*
X107101528Y-139869204D01*
X107102248Y-139864351D01*
X107118674Y-139781769D01*
X107119866Y-139777009D01*
X107144308Y-139696435D01*
X107145961Y-139691815D01*
X107178183Y-139614024D01*
X107180281Y-139609588D01*
X107200000Y-139572697D01*
X107200000Y-137190000D01*
X107200961Y-137180245D01*
X107203806Y-137170866D01*
X107208427Y-137162221D01*
X107214645Y-137154645D01*
X107222221Y-137148427D01*
X107230866Y-137143806D01*
X107240245Y-137140961D01*
X107250000Y-137140000D01*
X108750000Y-137140000D01*
X108759755Y-137140961D01*
X108769134Y-137143806D01*
X108777779Y-137148427D01*
X108785355Y-137154645D01*
X108791573Y-137162221D01*
X108796194Y-137170866D01*
X108799039Y-137180245D01*
X108800000Y-137190000D01*
X108800000Y-139572697D01*
X108819719Y-139609588D01*
X108821817Y-139614024D01*
X108854039Y-139691815D01*
X108855692Y-139696435D01*
X108880134Y-139777009D01*
X108881326Y-139781769D01*
X108897752Y-139864351D01*
X108898472Y-139869204D01*
X108906726Y-139952999D01*
X108906967Y-139957900D01*
X108906967Y-140042100D01*
X108906726Y-140047001D01*
X108898472Y-140130796D01*
X108897752Y-140135649D01*
X108881326Y-140218231D01*
X108880134Y-140222991D01*
X108855692Y-140303565D01*
X108854039Y-140308185D01*
X108821817Y-140385976D01*
X108819719Y-140390412D01*
X108780027Y-140464670D01*
X108777505Y-140468878D01*
X108730726Y-140538888D01*
X108727803Y-140542830D01*
X108674387Y-140607918D01*
X108671091Y-140611553D01*
X108611553Y-140671091D01*
X108607918Y-140674387D01*
X108542830Y-140727803D01*
X108538888Y-140730726D01*
X108468878Y-140777505D01*
X108464670Y-140780027D01*
X108390412Y-140819719D01*
X108385976Y-140821817D01*
X108308185Y-140854039D01*
X108303565Y-140855692D01*
X108222991Y-140880134D01*
X108218231Y-140881326D01*
X108135649Y-140897752D01*
X108130796Y-140898472D01*
X108047001Y-140906726D01*
X108042100Y-140906967D01*
X107957900Y-140906967D01*
X107952999Y-140906726D01*
G37*
%TD*%
%TO.C,D15*%
G36*
X120047001Y-106473274D02*
G01*
X120130796Y-106481528D01*
X120135649Y-106482248D01*
X120218231Y-106498674D01*
X120222991Y-106499866D01*
X120303565Y-106524308D01*
X120308185Y-106525961D01*
X120385976Y-106558183D01*
X120390412Y-106560281D01*
X120464670Y-106599973D01*
X120468878Y-106602495D01*
X120538888Y-106649274D01*
X120542830Y-106652197D01*
X120607918Y-106705613D01*
X120611553Y-106708909D01*
X120671091Y-106768447D01*
X120674387Y-106772082D01*
X120727803Y-106837170D01*
X120730726Y-106841112D01*
X120777505Y-106911122D01*
X120780027Y-106915330D01*
X120819719Y-106989588D01*
X120821817Y-106994024D01*
X120854039Y-107071815D01*
X120855692Y-107076435D01*
X120880134Y-107157009D01*
X120881326Y-107161769D01*
X120897752Y-107244351D01*
X120898472Y-107249204D01*
X120906726Y-107332999D01*
X120906967Y-107337900D01*
X120906967Y-107422100D01*
X120906726Y-107427001D01*
X120898472Y-107510796D01*
X120897752Y-107515649D01*
X120881326Y-107598231D01*
X120880134Y-107602991D01*
X120855692Y-107683565D01*
X120854039Y-107688185D01*
X120821817Y-107765976D01*
X120819719Y-107770412D01*
X120800000Y-107807303D01*
X120800000Y-110190000D01*
X120799039Y-110199755D01*
X120796194Y-110209134D01*
X120791573Y-110217779D01*
X120785355Y-110225355D01*
X120777779Y-110231573D01*
X120769134Y-110236194D01*
X120759755Y-110239039D01*
X120750000Y-110240000D01*
X119250000Y-110240000D01*
X119240245Y-110239039D01*
X119230866Y-110236194D01*
X119222221Y-110231573D01*
X119214645Y-110225355D01*
X119208427Y-110217779D01*
X119203806Y-110209134D01*
X119200961Y-110199755D01*
X119200000Y-110190000D01*
X119200000Y-107807303D01*
X119180281Y-107770412D01*
X119178183Y-107765976D01*
X119145961Y-107688185D01*
X119144308Y-107683565D01*
X119119866Y-107602991D01*
X119118674Y-107598231D01*
X119102248Y-107515649D01*
X119101528Y-107510796D01*
X119093274Y-107427001D01*
X119093033Y-107422100D01*
X119093033Y-107337900D01*
X119093274Y-107332999D01*
X119101528Y-107249204D01*
X119102248Y-107244351D01*
X119118674Y-107161769D01*
X119119866Y-107157009D01*
X119144308Y-107076435D01*
X119145961Y-107071815D01*
X119178183Y-106994024D01*
X119180281Y-106989588D01*
X119219973Y-106915330D01*
X119222495Y-106911122D01*
X119269274Y-106841112D01*
X119272197Y-106837170D01*
X119325613Y-106772082D01*
X119328909Y-106768447D01*
X119388447Y-106708909D01*
X119392082Y-106705613D01*
X119457170Y-106652197D01*
X119461112Y-106649274D01*
X119531122Y-106602495D01*
X119535330Y-106599973D01*
X119609588Y-106560281D01*
X119614024Y-106558183D01*
X119691815Y-106525961D01*
X119696435Y-106524308D01*
X119777009Y-106499866D01*
X119781769Y-106498674D01*
X119864351Y-106482248D01*
X119869204Y-106481528D01*
X119952999Y-106473274D01*
X119957900Y-106473033D01*
X120042100Y-106473033D01*
X120047001Y-106473274D01*
G37*
G36*
X119952999Y-115906726D02*
G01*
X119869204Y-115898472D01*
X119864351Y-115897752D01*
X119781769Y-115881326D01*
X119777009Y-115880134D01*
X119696435Y-115855692D01*
X119691815Y-115854039D01*
X119614024Y-115821817D01*
X119609588Y-115819719D01*
X119535330Y-115780027D01*
X119531122Y-115777505D01*
X119461112Y-115730726D01*
X119457170Y-115727803D01*
X119392082Y-115674387D01*
X119388447Y-115671091D01*
X119328909Y-115611553D01*
X119325613Y-115607918D01*
X119272197Y-115542830D01*
X119269274Y-115538888D01*
X119222495Y-115468878D01*
X119219973Y-115464670D01*
X119180281Y-115390412D01*
X119178183Y-115385976D01*
X119145961Y-115308185D01*
X119144308Y-115303565D01*
X119119866Y-115222991D01*
X119118674Y-115218231D01*
X119102248Y-115135649D01*
X119101528Y-115130796D01*
X119093274Y-115047001D01*
X119093033Y-115042100D01*
X119093033Y-114957900D01*
X119093274Y-114952999D01*
X119101528Y-114869204D01*
X119102248Y-114864351D01*
X119118674Y-114781769D01*
X119119866Y-114777009D01*
X119144308Y-114696435D01*
X119145961Y-114691815D01*
X119178183Y-114614024D01*
X119180281Y-114609588D01*
X119200000Y-114572697D01*
X119200000Y-112190000D01*
X119200961Y-112180245D01*
X119203806Y-112170866D01*
X119208427Y-112162221D01*
X119214645Y-112154645D01*
X119222221Y-112148427D01*
X119230866Y-112143806D01*
X119240245Y-112140961D01*
X119250000Y-112140000D01*
X120750000Y-112140000D01*
X120759755Y-112140961D01*
X120769134Y-112143806D01*
X120777779Y-112148427D01*
X120785355Y-112154645D01*
X120791573Y-112162221D01*
X120796194Y-112170866D01*
X120799039Y-112180245D01*
X120800000Y-112190000D01*
X120800000Y-114572697D01*
X120819719Y-114609588D01*
X120821817Y-114614024D01*
X120854039Y-114691815D01*
X120855692Y-114696435D01*
X120880134Y-114777009D01*
X120881326Y-114781769D01*
X120897752Y-114864351D01*
X120898472Y-114869204D01*
X120906726Y-114952999D01*
X120906967Y-114957900D01*
X120906967Y-115042100D01*
X120906726Y-115047001D01*
X120898472Y-115130796D01*
X120897752Y-115135649D01*
X120881326Y-115218231D01*
X120880134Y-115222991D01*
X120855692Y-115303565D01*
X120854039Y-115308185D01*
X120821817Y-115385976D01*
X120819719Y-115390412D01*
X120780027Y-115464670D01*
X120777505Y-115468878D01*
X120730726Y-115538888D01*
X120727803Y-115542830D01*
X120674387Y-115607918D01*
X120671091Y-115611553D01*
X120611553Y-115671091D01*
X120607918Y-115674387D01*
X120542830Y-115727803D01*
X120538888Y-115730726D01*
X120468878Y-115777505D01*
X120464670Y-115780027D01*
X120390412Y-115819719D01*
X120385976Y-115821817D01*
X120308185Y-115854039D01*
X120303565Y-115855692D01*
X120222991Y-115880134D01*
X120218231Y-115881326D01*
X120135649Y-115897752D01*
X120130796Y-115898472D01*
X120047001Y-115906726D01*
X120042100Y-115906967D01*
X119957900Y-115906967D01*
X119952999Y-115906726D01*
G37*
%TD*%
%TO.C,D14*%
G36*
X101047001Y-106973274D02*
G01*
X101130796Y-106981528D01*
X101135649Y-106982248D01*
X101218231Y-106998674D01*
X101222991Y-106999866D01*
X101303565Y-107024308D01*
X101308185Y-107025961D01*
X101385976Y-107058183D01*
X101390412Y-107060281D01*
X101464670Y-107099973D01*
X101468878Y-107102495D01*
X101538888Y-107149274D01*
X101542830Y-107152197D01*
X101607918Y-107205613D01*
X101611553Y-107208909D01*
X101671091Y-107268447D01*
X101674387Y-107272082D01*
X101727803Y-107337170D01*
X101730726Y-107341112D01*
X101777505Y-107411122D01*
X101780027Y-107415330D01*
X101819719Y-107489588D01*
X101821817Y-107494024D01*
X101854039Y-107571815D01*
X101855692Y-107576435D01*
X101880134Y-107657009D01*
X101881326Y-107661769D01*
X101897752Y-107744351D01*
X101898472Y-107749204D01*
X101906726Y-107832999D01*
X101906967Y-107837900D01*
X101906967Y-107922100D01*
X101906726Y-107927001D01*
X101898472Y-108010796D01*
X101897752Y-108015649D01*
X101881326Y-108098231D01*
X101880134Y-108102991D01*
X101855692Y-108183565D01*
X101854039Y-108188185D01*
X101821817Y-108265976D01*
X101819719Y-108270412D01*
X101800000Y-108307303D01*
X101800000Y-110690000D01*
X101799039Y-110699755D01*
X101796194Y-110709134D01*
X101791573Y-110717779D01*
X101785355Y-110725355D01*
X101777779Y-110731573D01*
X101769134Y-110736194D01*
X101759755Y-110739039D01*
X101750000Y-110740000D01*
X100250000Y-110740000D01*
X100240245Y-110739039D01*
X100230866Y-110736194D01*
X100222221Y-110731573D01*
X100214645Y-110725355D01*
X100208427Y-110717779D01*
X100203806Y-110709134D01*
X100200961Y-110699755D01*
X100200000Y-110690000D01*
X100200000Y-108307303D01*
X100180281Y-108270412D01*
X100178183Y-108265976D01*
X100145961Y-108188185D01*
X100144308Y-108183565D01*
X100119866Y-108102991D01*
X100118674Y-108098231D01*
X100102248Y-108015649D01*
X100101528Y-108010796D01*
X100093274Y-107927001D01*
X100093033Y-107922100D01*
X100093033Y-107837900D01*
X100093274Y-107832999D01*
X100101528Y-107749204D01*
X100102248Y-107744351D01*
X100118674Y-107661769D01*
X100119866Y-107657009D01*
X100144308Y-107576435D01*
X100145961Y-107571815D01*
X100178183Y-107494024D01*
X100180281Y-107489588D01*
X100219973Y-107415330D01*
X100222495Y-107411122D01*
X100269274Y-107341112D01*
X100272197Y-107337170D01*
X100325613Y-107272082D01*
X100328909Y-107268447D01*
X100388447Y-107208909D01*
X100392082Y-107205613D01*
X100457170Y-107152197D01*
X100461112Y-107149274D01*
X100531122Y-107102495D01*
X100535330Y-107099973D01*
X100609588Y-107060281D01*
X100614024Y-107058183D01*
X100691815Y-107025961D01*
X100696435Y-107024308D01*
X100777009Y-106999866D01*
X100781769Y-106998674D01*
X100864351Y-106982248D01*
X100869204Y-106981528D01*
X100952999Y-106973274D01*
X100957900Y-106973033D01*
X101042100Y-106973033D01*
X101047001Y-106973274D01*
G37*
G36*
X100952999Y-116406726D02*
G01*
X100869204Y-116398472D01*
X100864351Y-116397752D01*
X100781769Y-116381326D01*
X100777009Y-116380134D01*
X100696435Y-116355692D01*
X100691815Y-116354039D01*
X100614024Y-116321817D01*
X100609588Y-116319719D01*
X100535330Y-116280027D01*
X100531122Y-116277505D01*
X100461112Y-116230726D01*
X100457170Y-116227803D01*
X100392082Y-116174387D01*
X100388447Y-116171091D01*
X100328909Y-116111553D01*
X100325613Y-116107918D01*
X100272197Y-116042830D01*
X100269274Y-116038888D01*
X100222495Y-115968878D01*
X100219973Y-115964670D01*
X100180281Y-115890412D01*
X100178183Y-115885976D01*
X100145961Y-115808185D01*
X100144308Y-115803565D01*
X100119866Y-115722991D01*
X100118674Y-115718231D01*
X100102248Y-115635649D01*
X100101528Y-115630796D01*
X100093274Y-115547001D01*
X100093033Y-115542100D01*
X100093033Y-115457900D01*
X100093274Y-115452999D01*
X100101528Y-115369204D01*
X100102248Y-115364351D01*
X100118674Y-115281769D01*
X100119866Y-115277009D01*
X100144308Y-115196435D01*
X100145961Y-115191815D01*
X100178183Y-115114024D01*
X100180281Y-115109588D01*
X100200000Y-115072697D01*
X100200000Y-112690000D01*
X100200961Y-112680245D01*
X100203806Y-112670866D01*
X100208427Y-112662221D01*
X100214645Y-112654645D01*
X100222221Y-112648427D01*
X100230866Y-112643806D01*
X100240245Y-112640961D01*
X100250000Y-112640000D01*
X101750000Y-112640000D01*
X101759755Y-112640961D01*
X101769134Y-112643806D01*
X101777779Y-112648427D01*
X101785355Y-112654645D01*
X101791573Y-112662221D01*
X101796194Y-112670866D01*
X101799039Y-112680245D01*
X101800000Y-112690000D01*
X101800000Y-115072697D01*
X101819719Y-115109588D01*
X101821817Y-115114024D01*
X101854039Y-115191815D01*
X101855692Y-115196435D01*
X101880134Y-115277009D01*
X101881326Y-115281769D01*
X101897752Y-115364351D01*
X101898472Y-115369204D01*
X101906726Y-115452999D01*
X101906967Y-115457900D01*
X101906967Y-115542100D01*
X101906726Y-115547001D01*
X101898472Y-115630796D01*
X101897752Y-115635649D01*
X101881326Y-115718231D01*
X101880134Y-115722991D01*
X101855692Y-115803565D01*
X101854039Y-115808185D01*
X101821817Y-115885976D01*
X101819719Y-115890412D01*
X101780027Y-115964670D01*
X101777505Y-115968878D01*
X101730726Y-116038888D01*
X101727803Y-116042830D01*
X101674387Y-116107918D01*
X101671091Y-116111553D01*
X101611553Y-116171091D01*
X101607918Y-116174387D01*
X101542830Y-116227803D01*
X101538888Y-116230726D01*
X101468878Y-116277505D01*
X101464670Y-116280027D01*
X101390412Y-116319719D01*
X101385976Y-116321817D01*
X101308185Y-116354039D01*
X101303565Y-116355692D01*
X101222991Y-116380134D01*
X101218231Y-116381326D01*
X101135649Y-116397752D01*
X101130796Y-116398472D01*
X101047001Y-116406726D01*
X101042100Y-116406967D01*
X100957900Y-116406967D01*
X100952999Y-116406726D01*
G37*
%TD*%
%TO.C,D13*%
G36*
X82047001Y-106973274D02*
G01*
X82130796Y-106981528D01*
X82135649Y-106982248D01*
X82218231Y-106998674D01*
X82222991Y-106999866D01*
X82303565Y-107024308D01*
X82308185Y-107025961D01*
X82385976Y-107058183D01*
X82390412Y-107060281D01*
X82464670Y-107099973D01*
X82468878Y-107102495D01*
X82538888Y-107149274D01*
X82542830Y-107152197D01*
X82607918Y-107205613D01*
X82611553Y-107208909D01*
X82671091Y-107268447D01*
X82674387Y-107272082D01*
X82727803Y-107337170D01*
X82730726Y-107341112D01*
X82777505Y-107411122D01*
X82780027Y-107415330D01*
X82819719Y-107489588D01*
X82821817Y-107494024D01*
X82854039Y-107571815D01*
X82855692Y-107576435D01*
X82880134Y-107657009D01*
X82881326Y-107661769D01*
X82897752Y-107744351D01*
X82898472Y-107749204D01*
X82906726Y-107832999D01*
X82906967Y-107837900D01*
X82906967Y-107922100D01*
X82906726Y-107927001D01*
X82898472Y-108010796D01*
X82897752Y-108015649D01*
X82881326Y-108098231D01*
X82880134Y-108102991D01*
X82855692Y-108183565D01*
X82854039Y-108188185D01*
X82821817Y-108265976D01*
X82819719Y-108270412D01*
X82800000Y-108307303D01*
X82800000Y-110690000D01*
X82799039Y-110699755D01*
X82796194Y-110709134D01*
X82791573Y-110717779D01*
X82785355Y-110725355D01*
X82777779Y-110731573D01*
X82769134Y-110736194D01*
X82759755Y-110739039D01*
X82750000Y-110740000D01*
X81250000Y-110740000D01*
X81240245Y-110739039D01*
X81230866Y-110736194D01*
X81222221Y-110731573D01*
X81214645Y-110725355D01*
X81208427Y-110717779D01*
X81203806Y-110709134D01*
X81200961Y-110699755D01*
X81200000Y-110690000D01*
X81200000Y-108307303D01*
X81180281Y-108270412D01*
X81178183Y-108265976D01*
X81145961Y-108188185D01*
X81144308Y-108183565D01*
X81119866Y-108102991D01*
X81118674Y-108098231D01*
X81102248Y-108015649D01*
X81101528Y-108010796D01*
X81093274Y-107927001D01*
X81093033Y-107922100D01*
X81093033Y-107837900D01*
X81093274Y-107832999D01*
X81101528Y-107749204D01*
X81102248Y-107744351D01*
X81118674Y-107661769D01*
X81119866Y-107657009D01*
X81144308Y-107576435D01*
X81145961Y-107571815D01*
X81178183Y-107494024D01*
X81180281Y-107489588D01*
X81219973Y-107415330D01*
X81222495Y-107411122D01*
X81269274Y-107341112D01*
X81272197Y-107337170D01*
X81325613Y-107272082D01*
X81328909Y-107268447D01*
X81388447Y-107208909D01*
X81392082Y-107205613D01*
X81457170Y-107152197D01*
X81461112Y-107149274D01*
X81531122Y-107102495D01*
X81535330Y-107099973D01*
X81609588Y-107060281D01*
X81614024Y-107058183D01*
X81691815Y-107025961D01*
X81696435Y-107024308D01*
X81777009Y-106999866D01*
X81781769Y-106998674D01*
X81864351Y-106982248D01*
X81869204Y-106981528D01*
X81952999Y-106973274D01*
X81957900Y-106973033D01*
X82042100Y-106973033D01*
X82047001Y-106973274D01*
G37*
G36*
X81952999Y-116406726D02*
G01*
X81869204Y-116398472D01*
X81864351Y-116397752D01*
X81781769Y-116381326D01*
X81777009Y-116380134D01*
X81696435Y-116355692D01*
X81691815Y-116354039D01*
X81614024Y-116321817D01*
X81609588Y-116319719D01*
X81535330Y-116280027D01*
X81531122Y-116277505D01*
X81461112Y-116230726D01*
X81457170Y-116227803D01*
X81392082Y-116174387D01*
X81388447Y-116171091D01*
X81328909Y-116111553D01*
X81325613Y-116107918D01*
X81272197Y-116042830D01*
X81269274Y-116038888D01*
X81222495Y-115968878D01*
X81219973Y-115964670D01*
X81180281Y-115890412D01*
X81178183Y-115885976D01*
X81145961Y-115808185D01*
X81144308Y-115803565D01*
X81119866Y-115722991D01*
X81118674Y-115718231D01*
X81102248Y-115635649D01*
X81101528Y-115630796D01*
X81093274Y-115547001D01*
X81093033Y-115542100D01*
X81093033Y-115457900D01*
X81093274Y-115452999D01*
X81101528Y-115369204D01*
X81102248Y-115364351D01*
X81118674Y-115281769D01*
X81119866Y-115277009D01*
X81144308Y-115196435D01*
X81145961Y-115191815D01*
X81178183Y-115114024D01*
X81180281Y-115109588D01*
X81200000Y-115072697D01*
X81200000Y-112690000D01*
X81200961Y-112680245D01*
X81203806Y-112670866D01*
X81208427Y-112662221D01*
X81214645Y-112654645D01*
X81222221Y-112648427D01*
X81230866Y-112643806D01*
X81240245Y-112640961D01*
X81250000Y-112640000D01*
X82750000Y-112640000D01*
X82759755Y-112640961D01*
X82769134Y-112643806D01*
X82777779Y-112648427D01*
X82785355Y-112654645D01*
X82791573Y-112662221D01*
X82796194Y-112670866D01*
X82799039Y-112680245D01*
X82800000Y-112690000D01*
X82800000Y-115072697D01*
X82819719Y-115109588D01*
X82821817Y-115114024D01*
X82854039Y-115191815D01*
X82855692Y-115196435D01*
X82880134Y-115277009D01*
X82881326Y-115281769D01*
X82897752Y-115364351D01*
X82898472Y-115369204D01*
X82906726Y-115452999D01*
X82906967Y-115457900D01*
X82906967Y-115542100D01*
X82906726Y-115547001D01*
X82898472Y-115630796D01*
X82897752Y-115635649D01*
X82881326Y-115718231D01*
X82880134Y-115722991D01*
X82855692Y-115803565D01*
X82854039Y-115808185D01*
X82821817Y-115885976D01*
X82819719Y-115890412D01*
X82780027Y-115964670D01*
X82777505Y-115968878D01*
X82730726Y-116038888D01*
X82727803Y-116042830D01*
X82674387Y-116107918D01*
X82671091Y-116111553D01*
X82611553Y-116171091D01*
X82607918Y-116174387D01*
X82542830Y-116227803D01*
X82538888Y-116230726D01*
X82468878Y-116277505D01*
X82464670Y-116280027D01*
X82390412Y-116319719D01*
X82385976Y-116321817D01*
X82308185Y-116354039D01*
X82303565Y-116355692D01*
X82222991Y-116380134D01*
X82218231Y-116381326D01*
X82135649Y-116397752D01*
X82130796Y-116398472D01*
X82047001Y-116406726D01*
X82042100Y-116406967D01*
X81957900Y-116406967D01*
X81952999Y-116406726D01*
G37*
%TD*%
%TO.C,D12*%
G36*
X79547001Y-106973274D02*
G01*
X79630796Y-106981528D01*
X79635649Y-106982248D01*
X79718231Y-106998674D01*
X79722991Y-106999866D01*
X79803565Y-107024308D01*
X79808185Y-107025961D01*
X79885976Y-107058183D01*
X79890412Y-107060281D01*
X79964670Y-107099973D01*
X79968878Y-107102495D01*
X80038888Y-107149274D01*
X80042830Y-107152197D01*
X80107918Y-107205613D01*
X80111553Y-107208909D01*
X80171091Y-107268447D01*
X80174387Y-107272082D01*
X80227803Y-107337170D01*
X80230726Y-107341112D01*
X80277505Y-107411122D01*
X80280027Y-107415330D01*
X80319719Y-107489588D01*
X80321817Y-107494024D01*
X80354039Y-107571815D01*
X80355692Y-107576435D01*
X80380134Y-107657009D01*
X80381326Y-107661769D01*
X80397752Y-107744351D01*
X80398472Y-107749204D01*
X80406726Y-107832999D01*
X80406967Y-107837900D01*
X80406967Y-107922100D01*
X80406726Y-107927001D01*
X80398472Y-108010796D01*
X80397752Y-108015649D01*
X80381326Y-108098231D01*
X80380134Y-108102991D01*
X80355692Y-108183565D01*
X80354039Y-108188185D01*
X80321817Y-108265976D01*
X80319719Y-108270412D01*
X80300000Y-108307303D01*
X80300000Y-110690000D01*
X80299039Y-110699755D01*
X80296194Y-110709134D01*
X80291573Y-110717779D01*
X80285355Y-110725355D01*
X80277779Y-110731573D01*
X80269134Y-110736194D01*
X80259755Y-110739039D01*
X80250000Y-110740000D01*
X78750000Y-110740000D01*
X78740245Y-110739039D01*
X78730866Y-110736194D01*
X78722221Y-110731573D01*
X78714645Y-110725355D01*
X78708427Y-110717779D01*
X78703806Y-110709134D01*
X78700961Y-110699755D01*
X78700000Y-110690000D01*
X78700000Y-108307303D01*
X78680281Y-108270412D01*
X78678183Y-108265976D01*
X78645961Y-108188185D01*
X78644308Y-108183565D01*
X78619866Y-108102991D01*
X78618674Y-108098231D01*
X78602248Y-108015649D01*
X78601528Y-108010796D01*
X78593274Y-107927001D01*
X78593033Y-107922100D01*
X78593033Y-107837900D01*
X78593274Y-107832999D01*
X78601528Y-107749204D01*
X78602248Y-107744351D01*
X78618674Y-107661769D01*
X78619866Y-107657009D01*
X78644308Y-107576435D01*
X78645961Y-107571815D01*
X78678183Y-107494024D01*
X78680281Y-107489588D01*
X78719973Y-107415330D01*
X78722495Y-107411122D01*
X78769274Y-107341112D01*
X78772197Y-107337170D01*
X78825613Y-107272082D01*
X78828909Y-107268447D01*
X78888447Y-107208909D01*
X78892082Y-107205613D01*
X78957170Y-107152197D01*
X78961112Y-107149274D01*
X79031122Y-107102495D01*
X79035330Y-107099973D01*
X79109588Y-107060281D01*
X79114024Y-107058183D01*
X79191815Y-107025961D01*
X79196435Y-107024308D01*
X79277009Y-106999866D01*
X79281769Y-106998674D01*
X79364351Y-106982248D01*
X79369204Y-106981528D01*
X79452999Y-106973274D01*
X79457900Y-106973033D01*
X79542100Y-106973033D01*
X79547001Y-106973274D01*
G37*
G36*
X79452999Y-116406726D02*
G01*
X79369204Y-116398472D01*
X79364351Y-116397752D01*
X79281769Y-116381326D01*
X79277009Y-116380134D01*
X79196435Y-116355692D01*
X79191815Y-116354039D01*
X79114024Y-116321817D01*
X79109588Y-116319719D01*
X79035330Y-116280027D01*
X79031122Y-116277505D01*
X78961112Y-116230726D01*
X78957170Y-116227803D01*
X78892082Y-116174387D01*
X78888447Y-116171091D01*
X78828909Y-116111553D01*
X78825613Y-116107918D01*
X78772197Y-116042830D01*
X78769274Y-116038888D01*
X78722495Y-115968878D01*
X78719973Y-115964670D01*
X78680281Y-115890412D01*
X78678183Y-115885976D01*
X78645961Y-115808185D01*
X78644308Y-115803565D01*
X78619866Y-115722991D01*
X78618674Y-115718231D01*
X78602248Y-115635649D01*
X78601528Y-115630796D01*
X78593274Y-115547001D01*
X78593033Y-115542100D01*
X78593033Y-115457900D01*
X78593274Y-115452999D01*
X78601528Y-115369204D01*
X78602248Y-115364351D01*
X78618674Y-115281769D01*
X78619866Y-115277009D01*
X78644308Y-115196435D01*
X78645961Y-115191815D01*
X78678183Y-115114024D01*
X78680281Y-115109588D01*
X78700000Y-115072697D01*
X78700000Y-112690000D01*
X78700961Y-112680245D01*
X78703806Y-112670866D01*
X78708427Y-112662221D01*
X78714645Y-112654645D01*
X78722221Y-112648427D01*
X78730866Y-112643806D01*
X78740245Y-112640961D01*
X78750000Y-112640000D01*
X80250000Y-112640000D01*
X80259755Y-112640961D01*
X80269134Y-112643806D01*
X80277779Y-112648427D01*
X80285355Y-112654645D01*
X80291573Y-112662221D01*
X80296194Y-112670866D01*
X80299039Y-112680245D01*
X80300000Y-112690000D01*
X80300000Y-115072697D01*
X80319719Y-115109588D01*
X80321817Y-115114024D01*
X80354039Y-115191815D01*
X80355692Y-115196435D01*
X80380134Y-115277009D01*
X80381326Y-115281769D01*
X80397752Y-115364351D01*
X80398472Y-115369204D01*
X80406726Y-115452999D01*
X80406967Y-115457900D01*
X80406967Y-115542100D01*
X80406726Y-115547001D01*
X80398472Y-115630796D01*
X80397752Y-115635649D01*
X80381326Y-115718231D01*
X80380134Y-115722991D01*
X80355692Y-115803565D01*
X80354039Y-115808185D01*
X80321817Y-115885976D01*
X80319719Y-115890412D01*
X80280027Y-115964670D01*
X80277505Y-115968878D01*
X80230726Y-116038888D01*
X80227803Y-116042830D01*
X80174387Y-116107918D01*
X80171091Y-116111553D01*
X80111553Y-116171091D01*
X80107918Y-116174387D01*
X80042830Y-116227803D01*
X80038888Y-116230726D01*
X79968878Y-116277505D01*
X79964670Y-116280027D01*
X79890412Y-116319719D01*
X79885976Y-116321817D01*
X79808185Y-116354039D01*
X79803565Y-116355692D01*
X79722991Y-116380134D01*
X79718231Y-116381326D01*
X79635649Y-116397752D01*
X79630796Y-116398472D01*
X79547001Y-116406726D01*
X79542100Y-116406967D01*
X79457900Y-116406967D01*
X79452999Y-116406726D01*
G37*
%TD*%
%TO.C,D11*%
G36*
X61047001Y-112473274D02*
G01*
X61130796Y-112481528D01*
X61135649Y-112482248D01*
X61218231Y-112498674D01*
X61222991Y-112499866D01*
X61303565Y-112524308D01*
X61308185Y-112525961D01*
X61385976Y-112558183D01*
X61390412Y-112560281D01*
X61464670Y-112599973D01*
X61468878Y-112602495D01*
X61538888Y-112649274D01*
X61542830Y-112652197D01*
X61607918Y-112705613D01*
X61611553Y-112708909D01*
X61671091Y-112768447D01*
X61674387Y-112772082D01*
X61727803Y-112837170D01*
X61730726Y-112841112D01*
X61777505Y-112911122D01*
X61780027Y-112915330D01*
X61819719Y-112989588D01*
X61821817Y-112994024D01*
X61854039Y-113071815D01*
X61855692Y-113076435D01*
X61880134Y-113157009D01*
X61881326Y-113161769D01*
X61897752Y-113244351D01*
X61898472Y-113249204D01*
X61906726Y-113332999D01*
X61906967Y-113337900D01*
X61906967Y-113422100D01*
X61906726Y-113427001D01*
X61898472Y-113510796D01*
X61897752Y-113515649D01*
X61881326Y-113598231D01*
X61880134Y-113602991D01*
X61855692Y-113683565D01*
X61854039Y-113688185D01*
X61821817Y-113765976D01*
X61819719Y-113770412D01*
X61800000Y-113807303D01*
X61800000Y-116190000D01*
X61799039Y-116199755D01*
X61796194Y-116209134D01*
X61791573Y-116217779D01*
X61785355Y-116225355D01*
X61777779Y-116231573D01*
X61769134Y-116236194D01*
X61759755Y-116239039D01*
X61750000Y-116240000D01*
X60250000Y-116240000D01*
X60240245Y-116239039D01*
X60230866Y-116236194D01*
X60222221Y-116231573D01*
X60214645Y-116225355D01*
X60208427Y-116217779D01*
X60203806Y-116209134D01*
X60200961Y-116199755D01*
X60200000Y-116190000D01*
X60200000Y-113807303D01*
X60180281Y-113770412D01*
X60178183Y-113765976D01*
X60145961Y-113688185D01*
X60144308Y-113683565D01*
X60119866Y-113602991D01*
X60118674Y-113598231D01*
X60102248Y-113515649D01*
X60101528Y-113510796D01*
X60093274Y-113427001D01*
X60093033Y-113422100D01*
X60093033Y-113337900D01*
X60093274Y-113332999D01*
X60101528Y-113249204D01*
X60102248Y-113244351D01*
X60118674Y-113161769D01*
X60119866Y-113157009D01*
X60144308Y-113076435D01*
X60145961Y-113071815D01*
X60178183Y-112994024D01*
X60180281Y-112989588D01*
X60219973Y-112915330D01*
X60222495Y-112911122D01*
X60269274Y-112841112D01*
X60272197Y-112837170D01*
X60325613Y-112772082D01*
X60328909Y-112768447D01*
X60388447Y-112708909D01*
X60392082Y-112705613D01*
X60457170Y-112652197D01*
X60461112Y-112649274D01*
X60531122Y-112602495D01*
X60535330Y-112599973D01*
X60609588Y-112560281D01*
X60614024Y-112558183D01*
X60691815Y-112525961D01*
X60696435Y-112524308D01*
X60777009Y-112499866D01*
X60781769Y-112498674D01*
X60864351Y-112482248D01*
X60869204Y-112481528D01*
X60952999Y-112473274D01*
X60957900Y-112473033D01*
X61042100Y-112473033D01*
X61047001Y-112473274D01*
G37*
G36*
X60952999Y-121906726D02*
G01*
X60869204Y-121898472D01*
X60864351Y-121897752D01*
X60781769Y-121881326D01*
X60777009Y-121880134D01*
X60696435Y-121855692D01*
X60691815Y-121854039D01*
X60614024Y-121821817D01*
X60609588Y-121819719D01*
X60535330Y-121780027D01*
X60531122Y-121777505D01*
X60461112Y-121730726D01*
X60457170Y-121727803D01*
X60392082Y-121674387D01*
X60388447Y-121671091D01*
X60328909Y-121611553D01*
X60325613Y-121607918D01*
X60272197Y-121542830D01*
X60269274Y-121538888D01*
X60222495Y-121468878D01*
X60219973Y-121464670D01*
X60180281Y-121390412D01*
X60178183Y-121385976D01*
X60145961Y-121308185D01*
X60144308Y-121303565D01*
X60119866Y-121222991D01*
X60118674Y-121218231D01*
X60102248Y-121135649D01*
X60101528Y-121130796D01*
X60093274Y-121047001D01*
X60093033Y-121042100D01*
X60093033Y-120957900D01*
X60093274Y-120952999D01*
X60101528Y-120869204D01*
X60102248Y-120864351D01*
X60118674Y-120781769D01*
X60119866Y-120777009D01*
X60144308Y-120696435D01*
X60145961Y-120691815D01*
X60178183Y-120614024D01*
X60180281Y-120609588D01*
X60200000Y-120572697D01*
X60200000Y-118190000D01*
X60200961Y-118180245D01*
X60203806Y-118170866D01*
X60208427Y-118162221D01*
X60214645Y-118154645D01*
X60222221Y-118148427D01*
X60230866Y-118143806D01*
X60240245Y-118140961D01*
X60250000Y-118140000D01*
X61750000Y-118140000D01*
X61759755Y-118140961D01*
X61769134Y-118143806D01*
X61777779Y-118148427D01*
X61785355Y-118154645D01*
X61791573Y-118162221D01*
X61796194Y-118170866D01*
X61799039Y-118180245D01*
X61800000Y-118190000D01*
X61800000Y-120572697D01*
X61819719Y-120609588D01*
X61821817Y-120614024D01*
X61854039Y-120691815D01*
X61855692Y-120696435D01*
X61880134Y-120777009D01*
X61881326Y-120781769D01*
X61897752Y-120864351D01*
X61898472Y-120869204D01*
X61906726Y-120952999D01*
X61906967Y-120957900D01*
X61906967Y-121042100D01*
X61906726Y-121047001D01*
X61898472Y-121130796D01*
X61897752Y-121135649D01*
X61881326Y-121218231D01*
X61880134Y-121222991D01*
X61855692Y-121303565D01*
X61854039Y-121308185D01*
X61821817Y-121385976D01*
X61819719Y-121390412D01*
X61780027Y-121464670D01*
X61777505Y-121468878D01*
X61730726Y-121538888D01*
X61727803Y-121542830D01*
X61674387Y-121607918D01*
X61671091Y-121611553D01*
X61611553Y-121671091D01*
X61607918Y-121674387D01*
X61542830Y-121727803D01*
X61538888Y-121730726D01*
X61468878Y-121777505D01*
X61464670Y-121780027D01*
X61390412Y-121819719D01*
X61385976Y-121821817D01*
X61308185Y-121854039D01*
X61303565Y-121855692D01*
X61222991Y-121880134D01*
X61218231Y-121881326D01*
X61135649Y-121897752D01*
X61130796Y-121898472D01*
X61047001Y-121906726D01*
X61042100Y-121906967D01*
X60957900Y-121906967D01*
X60952999Y-121906726D01*
G37*
%TD*%
%TO.C,D10*%
G36*
X120547001Y-88973274D02*
G01*
X120630796Y-88981528D01*
X120635649Y-88982248D01*
X120718231Y-88998674D01*
X120722991Y-88999866D01*
X120803565Y-89024308D01*
X120808185Y-89025961D01*
X120885976Y-89058183D01*
X120890412Y-89060281D01*
X120964670Y-89099973D01*
X120968878Y-89102495D01*
X121038888Y-89149274D01*
X121042830Y-89152197D01*
X121107918Y-89205613D01*
X121111553Y-89208909D01*
X121171091Y-89268447D01*
X121174387Y-89272082D01*
X121227803Y-89337170D01*
X121230726Y-89341112D01*
X121277505Y-89411122D01*
X121280027Y-89415330D01*
X121319719Y-89489588D01*
X121321817Y-89494024D01*
X121354039Y-89571815D01*
X121355692Y-89576435D01*
X121380134Y-89657009D01*
X121381326Y-89661769D01*
X121397752Y-89744351D01*
X121398472Y-89749204D01*
X121406726Y-89832999D01*
X121406967Y-89837900D01*
X121406967Y-89922100D01*
X121406726Y-89927001D01*
X121398472Y-90010796D01*
X121397752Y-90015649D01*
X121381326Y-90098231D01*
X121380134Y-90102991D01*
X121355692Y-90183565D01*
X121354039Y-90188185D01*
X121321817Y-90265976D01*
X121319719Y-90270412D01*
X121300000Y-90307303D01*
X121300000Y-92690000D01*
X121299039Y-92699755D01*
X121296194Y-92709134D01*
X121291573Y-92717779D01*
X121285355Y-92725355D01*
X121277779Y-92731573D01*
X121269134Y-92736194D01*
X121259755Y-92739039D01*
X121250000Y-92740000D01*
X119750000Y-92740000D01*
X119740245Y-92739039D01*
X119730866Y-92736194D01*
X119722221Y-92731573D01*
X119714645Y-92725355D01*
X119708427Y-92717779D01*
X119703806Y-92709134D01*
X119700961Y-92699755D01*
X119700000Y-92690000D01*
X119700000Y-90307303D01*
X119680281Y-90270412D01*
X119678183Y-90265976D01*
X119645961Y-90188185D01*
X119644308Y-90183565D01*
X119619866Y-90102991D01*
X119618674Y-90098231D01*
X119602248Y-90015649D01*
X119601528Y-90010796D01*
X119593274Y-89927001D01*
X119593033Y-89922100D01*
X119593033Y-89837900D01*
X119593274Y-89832999D01*
X119601528Y-89749204D01*
X119602248Y-89744351D01*
X119618674Y-89661769D01*
X119619866Y-89657009D01*
X119644308Y-89576435D01*
X119645961Y-89571815D01*
X119678183Y-89494024D01*
X119680281Y-89489588D01*
X119719973Y-89415330D01*
X119722495Y-89411122D01*
X119769274Y-89341112D01*
X119772197Y-89337170D01*
X119825613Y-89272082D01*
X119828909Y-89268447D01*
X119888447Y-89208909D01*
X119892082Y-89205613D01*
X119957170Y-89152197D01*
X119961112Y-89149274D01*
X120031122Y-89102495D01*
X120035330Y-89099973D01*
X120109588Y-89060281D01*
X120114024Y-89058183D01*
X120191815Y-89025961D01*
X120196435Y-89024308D01*
X120277009Y-88999866D01*
X120281769Y-88998674D01*
X120364351Y-88982248D01*
X120369204Y-88981528D01*
X120452999Y-88973274D01*
X120457900Y-88973033D01*
X120542100Y-88973033D01*
X120547001Y-88973274D01*
G37*
G36*
X120452999Y-98406726D02*
G01*
X120369204Y-98398472D01*
X120364351Y-98397752D01*
X120281769Y-98381326D01*
X120277009Y-98380134D01*
X120196435Y-98355692D01*
X120191815Y-98354039D01*
X120114024Y-98321817D01*
X120109588Y-98319719D01*
X120035330Y-98280027D01*
X120031122Y-98277505D01*
X119961112Y-98230726D01*
X119957170Y-98227803D01*
X119892082Y-98174387D01*
X119888447Y-98171091D01*
X119828909Y-98111553D01*
X119825613Y-98107918D01*
X119772197Y-98042830D01*
X119769274Y-98038888D01*
X119722495Y-97968878D01*
X119719973Y-97964670D01*
X119680281Y-97890412D01*
X119678183Y-97885976D01*
X119645961Y-97808185D01*
X119644308Y-97803565D01*
X119619866Y-97722991D01*
X119618674Y-97718231D01*
X119602248Y-97635649D01*
X119601528Y-97630796D01*
X119593274Y-97547001D01*
X119593033Y-97542100D01*
X119593033Y-97457900D01*
X119593274Y-97452999D01*
X119601528Y-97369204D01*
X119602248Y-97364351D01*
X119618674Y-97281769D01*
X119619866Y-97277009D01*
X119644308Y-97196435D01*
X119645961Y-97191815D01*
X119678183Y-97114024D01*
X119680281Y-97109588D01*
X119700000Y-97072697D01*
X119700000Y-94690000D01*
X119700961Y-94680245D01*
X119703806Y-94670866D01*
X119708427Y-94662221D01*
X119714645Y-94654645D01*
X119722221Y-94648427D01*
X119730866Y-94643806D01*
X119740245Y-94640961D01*
X119750000Y-94640000D01*
X121250000Y-94640000D01*
X121259755Y-94640961D01*
X121269134Y-94643806D01*
X121277779Y-94648427D01*
X121285355Y-94654645D01*
X121291573Y-94662221D01*
X121296194Y-94670866D01*
X121299039Y-94680245D01*
X121300000Y-94690000D01*
X121300000Y-97072697D01*
X121319719Y-97109588D01*
X121321817Y-97114024D01*
X121354039Y-97191815D01*
X121355692Y-97196435D01*
X121380134Y-97277009D01*
X121381326Y-97281769D01*
X121397752Y-97364351D01*
X121398472Y-97369204D01*
X121406726Y-97452999D01*
X121406967Y-97457900D01*
X121406967Y-97542100D01*
X121406726Y-97547001D01*
X121398472Y-97630796D01*
X121397752Y-97635649D01*
X121381326Y-97718231D01*
X121380134Y-97722991D01*
X121355692Y-97803565D01*
X121354039Y-97808185D01*
X121321817Y-97885976D01*
X121319719Y-97890412D01*
X121280027Y-97964670D01*
X121277505Y-97968878D01*
X121230726Y-98038888D01*
X121227803Y-98042830D01*
X121174387Y-98107918D01*
X121171091Y-98111553D01*
X121111553Y-98171091D01*
X121107918Y-98174387D01*
X121042830Y-98227803D01*
X121038888Y-98230726D01*
X120968878Y-98277505D01*
X120964670Y-98280027D01*
X120890412Y-98319719D01*
X120885976Y-98321817D01*
X120808185Y-98354039D01*
X120803565Y-98355692D01*
X120722991Y-98380134D01*
X120718231Y-98381326D01*
X120635649Y-98397752D01*
X120630796Y-98398472D01*
X120547001Y-98406726D01*
X120542100Y-98406967D01*
X120457900Y-98406967D01*
X120452999Y-98406726D01*
G37*
%TD*%
%TO.C,D9*%
G36*
X98547001Y-87973274D02*
G01*
X98630796Y-87981528D01*
X98635649Y-87982248D01*
X98718231Y-87998674D01*
X98722991Y-87999866D01*
X98803565Y-88024308D01*
X98808185Y-88025961D01*
X98885976Y-88058183D01*
X98890412Y-88060281D01*
X98964670Y-88099973D01*
X98968878Y-88102495D01*
X99038888Y-88149274D01*
X99042830Y-88152197D01*
X99107918Y-88205613D01*
X99111553Y-88208909D01*
X99171091Y-88268447D01*
X99174387Y-88272082D01*
X99227803Y-88337170D01*
X99230726Y-88341112D01*
X99277505Y-88411122D01*
X99280027Y-88415330D01*
X99319719Y-88489588D01*
X99321817Y-88494024D01*
X99354039Y-88571815D01*
X99355692Y-88576435D01*
X99380134Y-88657009D01*
X99381326Y-88661769D01*
X99397752Y-88744351D01*
X99398472Y-88749204D01*
X99406726Y-88832999D01*
X99406967Y-88837900D01*
X99406967Y-88922100D01*
X99406726Y-88927001D01*
X99398472Y-89010796D01*
X99397752Y-89015649D01*
X99381326Y-89098231D01*
X99380134Y-89102991D01*
X99355692Y-89183565D01*
X99354039Y-89188185D01*
X99321817Y-89265976D01*
X99319719Y-89270412D01*
X99300000Y-89307303D01*
X99300000Y-91690000D01*
X99299039Y-91699755D01*
X99296194Y-91709134D01*
X99291573Y-91717779D01*
X99285355Y-91725355D01*
X99277779Y-91731573D01*
X99269134Y-91736194D01*
X99259755Y-91739039D01*
X99250000Y-91740000D01*
X97750000Y-91740000D01*
X97740245Y-91739039D01*
X97730866Y-91736194D01*
X97722221Y-91731573D01*
X97714645Y-91725355D01*
X97708427Y-91717779D01*
X97703806Y-91709134D01*
X97700961Y-91699755D01*
X97700000Y-91690000D01*
X97700000Y-89307303D01*
X97680281Y-89270412D01*
X97678183Y-89265976D01*
X97645961Y-89188185D01*
X97644308Y-89183565D01*
X97619866Y-89102991D01*
X97618674Y-89098231D01*
X97602248Y-89015649D01*
X97601528Y-89010796D01*
X97593274Y-88927001D01*
X97593033Y-88922100D01*
X97593033Y-88837900D01*
X97593274Y-88832999D01*
X97601528Y-88749204D01*
X97602248Y-88744351D01*
X97618674Y-88661769D01*
X97619866Y-88657009D01*
X97644308Y-88576435D01*
X97645961Y-88571815D01*
X97678183Y-88494024D01*
X97680281Y-88489588D01*
X97719973Y-88415330D01*
X97722495Y-88411122D01*
X97769274Y-88341112D01*
X97772197Y-88337170D01*
X97825613Y-88272082D01*
X97828909Y-88268447D01*
X97888447Y-88208909D01*
X97892082Y-88205613D01*
X97957170Y-88152197D01*
X97961112Y-88149274D01*
X98031122Y-88102495D01*
X98035330Y-88099973D01*
X98109588Y-88060281D01*
X98114024Y-88058183D01*
X98191815Y-88025961D01*
X98196435Y-88024308D01*
X98277009Y-87999866D01*
X98281769Y-87998674D01*
X98364351Y-87982248D01*
X98369204Y-87981528D01*
X98452999Y-87973274D01*
X98457900Y-87973033D01*
X98542100Y-87973033D01*
X98547001Y-87973274D01*
G37*
G36*
X98452999Y-97406726D02*
G01*
X98369204Y-97398472D01*
X98364351Y-97397752D01*
X98281769Y-97381326D01*
X98277009Y-97380134D01*
X98196435Y-97355692D01*
X98191815Y-97354039D01*
X98114024Y-97321817D01*
X98109588Y-97319719D01*
X98035330Y-97280027D01*
X98031122Y-97277505D01*
X97961112Y-97230726D01*
X97957170Y-97227803D01*
X97892082Y-97174387D01*
X97888447Y-97171091D01*
X97828909Y-97111553D01*
X97825613Y-97107918D01*
X97772197Y-97042830D01*
X97769274Y-97038888D01*
X97722495Y-96968878D01*
X97719973Y-96964670D01*
X97680281Y-96890412D01*
X97678183Y-96885976D01*
X97645961Y-96808185D01*
X97644308Y-96803565D01*
X97619866Y-96722991D01*
X97618674Y-96718231D01*
X97602248Y-96635649D01*
X97601528Y-96630796D01*
X97593274Y-96547001D01*
X97593033Y-96542100D01*
X97593033Y-96457900D01*
X97593274Y-96452999D01*
X97601528Y-96369204D01*
X97602248Y-96364351D01*
X97618674Y-96281769D01*
X97619866Y-96277009D01*
X97644308Y-96196435D01*
X97645961Y-96191815D01*
X97678183Y-96114024D01*
X97680281Y-96109588D01*
X97700000Y-96072697D01*
X97700000Y-93690000D01*
X97700961Y-93680245D01*
X97703806Y-93670866D01*
X97708427Y-93662221D01*
X97714645Y-93654645D01*
X97722221Y-93648427D01*
X97730866Y-93643806D01*
X97740245Y-93640961D01*
X97750000Y-93640000D01*
X99250000Y-93640000D01*
X99259755Y-93640961D01*
X99269134Y-93643806D01*
X99277779Y-93648427D01*
X99285355Y-93654645D01*
X99291573Y-93662221D01*
X99296194Y-93670866D01*
X99299039Y-93680245D01*
X99300000Y-93690000D01*
X99300000Y-96072697D01*
X99319719Y-96109588D01*
X99321817Y-96114024D01*
X99354039Y-96191815D01*
X99355692Y-96196435D01*
X99380134Y-96277009D01*
X99381326Y-96281769D01*
X99397752Y-96364351D01*
X99398472Y-96369204D01*
X99406726Y-96452999D01*
X99406967Y-96457900D01*
X99406967Y-96542100D01*
X99406726Y-96547001D01*
X99398472Y-96630796D01*
X99397752Y-96635649D01*
X99381326Y-96718231D01*
X99380134Y-96722991D01*
X99355692Y-96803565D01*
X99354039Y-96808185D01*
X99321817Y-96885976D01*
X99319719Y-96890412D01*
X99280027Y-96964670D01*
X99277505Y-96968878D01*
X99230726Y-97038888D01*
X99227803Y-97042830D01*
X99174387Y-97107918D01*
X99171091Y-97111553D01*
X99111553Y-97171091D01*
X99107918Y-97174387D01*
X99042830Y-97227803D01*
X99038888Y-97230726D01*
X98968878Y-97277505D01*
X98964670Y-97280027D01*
X98890412Y-97319719D01*
X98885976Y-97321817D01*
X98808185Y-97354039D01*
X98803565Y-97355692D01*
X98722991Y-97380134D01*
X98718231Y-97381326D01*
X98635649Y-97397752D01*
X98630796Y-97398472D01*
X98547001Y-97406726D01*
X98542100Y-97406967D01*
X98457900Y-97406967D01*
X98452999Y-97406726D01*
G37*
%TD*%
%TO.C,D8*%
G36*
X82047001Y-87973274D02*
G01*
X82130796Y-87981528D01*
X82135649Y-87982248D01*
X82218231Y-87998674D01*
X82222991Y-87999866D01*
X82303565Y-88024308D01*
X82308185Y-88025961D01*
X82385976Y-88058183D01*
X82390412Y-88060281D01*
X82464670Y-88099973D01*
X82468878Y-88102495D01*
X82538888Y-88149274D01*
X82542830Y-88152197D01*
X82607918Y-88205613D01*
X82611553Y-88208909D01*
X82671091Y-88268447D01*
X82674387Y-88272082D01*
X82727803Y-88337170D01*
X82730726Y-88341112D01*
X82777505Y-88411122D01*
X82780027Y-88415330D01*
X82819719Y-88489588D01*
X82821817Y-88494024D01*
X82854039Y-88571815D01*
X82855692Y-88576435D01*
X82880134Y-88657009D01*
X82881326Y-88661769D01*
X82897752Y-88744351D01*
X82898472Y-88749204D01*
X82906726Y-88832999D01*
X82906967Y-88837900D01*
X82906967Y-88922100D01*
X82906726Y-88927001D01*
X82898472Y-89010796D01*
X82897752Y-89015649D01*
X82881326Y-89098231D01*
X82880134Y-89102991D01*
X82855692Y-89183565D01*
X82854039Y-89188185D01*
X82821817Y-89265976D01*
X82819719Y-89270412D01*
X82800000Y-89307303D01*
X82800000Y-91690000D01*
X82799039Y-91699755D01*
X82796194Y-91709134D01*
X82791573Y-91717779D01*
X82785355Y-91725355D01*
X82777779Y-91731573D01*
X82769134Y-91736194D01*
X82759755Y-91739039D01*
X82750000Y-91740000D01*
X81250000Y-91740000D01*
X81240245Y-91739039D01*
X81230866Y-91736194D01*
X81222221Y-91731573D01*
X81214645Y-91725355D01*
X81208427Y-91717779D01*
X81203806Y-91709134D01*
X81200961Y-91699755D01*
X81200000Y-91690000D01*
X81200000Y-89307303D01*
X81180281Y-89270412D01*
X81178183Y-89265976D01*
X81145961Y-89188185D01*
X81144308Y-89183565D01*
X81119866Y-89102991D01*
X81118674Y-89098231D01*
X81102248Y-89015649D01*
X81101528Y-89010796D01*
X81093274Y-88927001D01*
X81093033Y-88922100D01*
X81093033Y-88837900D01*
X81093274Y-88832999D01*
X81101528Y-88749204D01*
X81102248Y-88744351D01*
X81118674Y-88661769D01*
X81119866Y-88657009D01*
X81144308Y-88576435D01*
X81145961Y-88571815D01*
X81178183Y-88494024D01*
X81180281Y-88489588D01*
X81219973Y-88415330D01*
X81222495Y-88411122D01*
X81269274Y-88341112D01*
X81272197Y-88337170D01*
X81325613Y-88272082D01*
X81328909Y-88268447D01*
X81388447Y-88208909D01*
X81392082Y-88205613D01*
X81457170Y-88152197D01*
X81461112Y-88149274D01*
X81531122Y-88102495D01*
X81535330Y-88099973D01*
X81609588Y-88060281D01*
X81614024Y-88058183D01*
X81691815Y-88025961D01*
X81696435Y-88024308D01*
X81777009Y-87999866D01*
X81781769Y-87998674D01*
X81864351Y-87982248D01*
X81869204Y-87981528D01*
X81952999Y-87973274D01*
X81957900Y-87973033D01*
X82042100Y-87973033D01*
X82047001Y-87973274D01*
G37*
G36*
X81952999Y-97406726D02*
G01*
X81869204Y-97398472D01*
X81864351Y-97397752D01*
X81781769Y-97381326D01*
X81777009Y-97380134D01*
X81696435Y-97355692D01*
X81691815Y-97354039D01*
X81614024Y-97321817D01*
X81609588Y-97319719D01*
X81535330Y-97280027D01*
X81531122Y-97277505D01*
X81461112Y-97230726D01*
X81457170Y-97227803D01*
X81392082Y-97174387D01*
X81388447Y-97171091D01*
X81328909Y-97111553D01*
X81325613Y-97107918D01*
X81272197Y-97042830D01*
X81269274Y-97038888D01*
X81222495Y-96968878D01*
X81219973Y-96964670D01*
X81180281Y-96890412D01*
X81178183Y-96885976D01*
X81145961Y-96808185D01*
X81144308Y-96803565D01*
X81119866Y-96722991D01*
X81118674Y-96718231D01*
X81102248Y-96635649D01*
X81101528Y-96630796D01*
X81093274Y-96547001D01*
X81093033Y-96542100D01*
X81093033Y-96457900D01*
X81093274Y-96452999D01*
X81101528Y-96369204D01*
X81102248Y-96364351D01*
X81118674Y-96281769D01*
X81119866Y-96277009D01*
X81144308Y-96196435D01*
X81145961Y-96191815D01*
X81178183Y-96114024D01*
X81180281Y-96109588D01*
X81200000Y-96072697D01*
X81200000Y-93690000D01*
X81200961Y-93680245D01*
X81203806Y-93670866D01*
X81208427Y-93662221D01*
X81214645Y-93654645D01*
X81222221Y-93648427D01*
X81230866Y-93643806D01*
X81240245Y-93640961D01*
X81250000Y-93640000D01*
X82750000Y-93640000D01*
X82759755Y-93640961D01*
X82769134Y-93643806D01*
X82777779Y-93648427D01*
X82785355Y-93654645D01*
X82791573Y-93662221D01*
X82796194Y-93670866D01*
X82799039Y-93680245D01*
X82800000Y-93690000D01*
X82800000Y-96072697D01*
X82819719Y-96109588D01*
X82821817Y-96114024D01*
X82854039Y-96191815D01*
X82855692Y-96196435D01*
X82880134Y-96277009D01*
X82881326Y-96281769D01*
X82897752Y-96364351D01*
X82898472Y-96369204D01*
X82906726Y-96452999D01*
X82906967Y-96457900D01*
X82906967Y-96542100D01*
X82906726Y-96547001D01*
X82898472Y-96630796D01*
X82897752Y-96635649D01*
X82881326Y-96718231D01*
X82880134Y-96722991D01*
X82855692Y-96803565D01*
X82854039Y-96808185D01*
X82821817Y-96885976D01*
X82819719Y-96890412D01*
X82780027Y-96964670D01*
X82777505Y-96968878D01*
X82730726Y-97038888D01*
X82727803Y-97042830D01*
X82674387Y-97107918D01*
X82671091Y-97111553D01*
X82611553Y-97171091D01*
X82607918Y-97174387D01*
X82542830Y-97227803D01*
X82538888Y-97230726D01*
X82468878Y-97277505D01*
X82464670Y-97280027D01*
X82390412Y-97319719D01*
X82385976Y-97321817D01*
X82308185Y-97354039D01*
X82303565Y-97355692D01*
X82222991Y-97380134D01*
X82218231Y-97381326D01*
X82135649Y-97397752D01*
X82130796Y-97398472D01*
X82047001Y-97406726D01*
X82042100Y-97406967D01*
X81957900Y-97406967D01*
X81952999Y-97406726D01*
G37*
%TD*%
%TO.C,D7*%
G36*
X79547001Y-87973274D02*
G01*
X79630796Y-87981528D01*
X79635649Y-87982248D01*
X79718231Y-87998674D01*
X79722991Y-87999866D01*
X79803565Y-88024308D01*
X79808185Y-88025961D01*
X79885976Y-88058183D01*
X79890412Y-88060281D01*
X79964670Y-88099973D01*
X79968878Y-88102495D01*
X80038888Y-88149274D01*
X80042830Y-88152197D01*
X80107918Y-88205613D01*
X80111553Y-88208909D01*
X80171091Y-88268447D01*
X80174387Y-88272082D01*
X80227803Y-88337170D01*
X80230726Y-88341112D01*
X80277505Y-88411122D01*
X80280027Y-88415330D01*
X80319719Y-88489588D01*
X80321817Y-88494024D01*
X80354039Y-88571815D01*
X80355692Y-88576435D01*
X80380134Y-88657009D01*
X80381326Y-88661769D01*
X80397752Y-88744351D01*
X80398472Y-88749204D01*
X80406726Y-88832999D01*
X80406967Y-88837900D01*
X80406967Y-88922100D01*
X80406726Y-88927001D01*
X80398472Y-89010796D01*
X80397752Y-89015649D01*
X80381326Y-89098231D01*
X80380134Y-89102991D01*
X80355692Y-89183565D01*
X80354039Y-89188185D01*
X80321817Y-89265976D01*
X80319719Y-89270412D01*
X80300000Y-89307303D01*
X80300000Y-91690000D01*
X80299039Y-91699755D01*
X80296194Y-91709134D01*
X80291573Y-91717779D01*
X80285355Y-91725355D01*
X80277779Y-91731573D01*
X80269134Y-91736194D01*
X80259755Y-91739039D01*
X80250000Y-91740000D01*
X78750000Y-91740000D01*
X78740245Y-91739039D01*
X78730866Y-91736194D01*
X78722221Y-91731573D01*
X78714645Y-91725355D01*
X78708427Y-91717779D01*
X78703806Y-91709134D01*
X78700961Y-91699755D01*
X78700000Y-91690000D01*
X78700000Y-89307303D01*
X78680281Y-89270412D01*
X78678183Y-89265976D01*
X78645961Y-89188185D01*
X78644308Y-89183565D01*
X78619866Y-89102991D01*
X78618674Y-89098231D01*
X78602248Y-89015649D01*
X78601528Y-89010796D01*
X78593274Y-88927001D01*
X78593033Y-88922100D01*
X78593033Y-88837900D01*
X78593274Y-88832999D01*
X78601528Y-88749204D01*
X78602248Y-88744351D01*
X78618674Y-88661769D01*
X78619866Y-88657009D01*
X78644308Y-88576435D01*
X78645961Y-88571815D01*
X78678183Y-88494024D01*
X78680281Y-88489588D01*
X78719973Y-88415330D01*
X78722495Y-88411122D01*
X78769274Y-88341112D01*
X78772197Y-88337170D01*
X78825613Y-88272082D01*
X78828909Y-88268447D01*
X78888447Y-88208909D01*
X78892082Y-88205613D01*
X78957170Y-88152197D01*
X78961112Y-88149274D01*
X79031122Y-88102495D01*
X79035330Y-88099973D01*
X79109588Y-88060281D01*
X79114024Y-88058183D01*
X79191815Y-88025961D01*
X79196435Y-88024308D01*
X79277009Y-87999866D01*
X79281769Y-87998674D01*
X79364351Y-87982248D01*
X79369204Y-87981528D01*
X79452999Y-87973274D01*
X79457900Y-87973033D01*
X79542100Y-87973033D01*
X79547001Y-87973274D01*
G37*
G36*
X79452999Y-97406726D02*
G01*
X79369204Y-97398472D01*
X79364351Y-97397752D01*
X79281769Y-97381326D01*
X79277009Y-97380134D01*
X79196435Y-97355692D01*
X79191815Y-97354039D01*
X79114024Y-97321817D01*
X79109588Y-97319719D01*
X79035330Y-97280027D01*
X79031122Y-97277505D01*
X78961112Y-97230726D01*
X78957170Y-97227803D01*
X78892082Y-97174387D01*
X78888447Y-97171091D01*
X78828909Y-97111553D01*
X78825613Y-97107918D01*
X78772197Y-97042830D01*
X78769274Y-97038888D01*
X78722495Y-96968878D01*
X78719973Y-96964670D01*
X78680281Y-96890412D01*
X78678183Y-96885976D01*
X78645961Y-96808185D01*
X78644308Y-96803565D01*
X78619866Y-96722991D01*
X78618674Y-96718231D01*
X78602248Y-96635649D01*
X78601528Y-96630796D01*
X78593274Y-96547001D01*
X78593033Y-96542100D01*
X78593033Y-96457900D01*
X78593274Y-96452999D01*
X78601528Y-96369204D01*
X78602248Y-96364351D01*
X78618674Y-96281769D01*
X78619866Y-96277009D01*
X78644308Y-96196435D01*
X78645961Y-96191815D01*
X78678183Y-96114024D01*
X78680281Y-96109588D01*
X78700000Y-96072697D01*
X78700000Y-93690000D01*
X78700961Y-93680245D01*
X78703806Y-93670866D01*
X78708427Y-93662221D01*
X78714645Y-93654645D01*
X78722221Y-93648427D01*
X78730866Y-93643806D01*
X78740245Y-93640961D01*
X78750000Y-93640000D01*
X80250000Y-93640000D01*
X80259755Y-93640961D01*
X80269134Y-93643806D01*
X80277779Y-93648427D01*
X80285355Y-93654645D01*
X80291573Y-93662221D01*
X80296194Y-93670866D01*
X80299039Y-93680245D01*
X80300000Y-93690000D01*
X80300000Y-96072697D01*
X80319719Y-96109588D01*
X80321817Y-96114024D01*
X80354039Y-96191815D01*
X80355692Y-96196435D01*
X80380134Y-96277009D01*
X80381326Y-96281769D01*
X80397752Y-96364351D01*
X80398472Y-96369204D01*
X80406726Y-96452999D01*
X80406967Y-96457900D01*
X80406967Y-96542100D01*
X80406726Y-96547001D01*
X80398472Y-96630796D01*
X80397752Y-96635649D01*
X80381326Y-96718231D01*
X80380134Y-96722991D01*
X80355692Y-96803565D01*
X80354039Y-96808185D01*
X80321817Y-96885976D01*
X80319719Y-96890412D01*
X80280027Y-96964670D01*
X80277505Y-96968878D01*
X80230726Y-97038888D01*
X80227803Y-97042830D01*
X80174387Y-97107918D01*
X80171091Y-97111553D01*
X80111553Y-97171091D01*
X80107918Y-97174387D01*
X80042830Y-97227803D01*
X80038888Y-97230726D01*
X79968878Y-97277505D01*
X79964670Y-97280027D01*
X79890412Y-97319719D01*
X79885976Y-97321817D01*
X79808185Y-97354039D01*
X79803565Y-97355692D01*
X79722991Y-97380134D01*
X79718231Y-97381326D01*
X79635649Y-97397752D01*
X79630796Y-97398472D01*
X79547001Y-97406726D01*
X79542100Y-97406967D01*
X79457900Y-97406967D01*
X79452999Y-97406726D01*
G37*
%TD*%
%TO.C,D6*%
G36*
X61047001Y-93473274D02*
G01*
X61130796Y-93481528D01*
X61135649Y-93482248D01*
X61218231Y-93498674D01*
X61222991Y-93499866D01*
X61303565Y-93524308D01*
X61308185Y-93525961D01*
X61385976Y-93558183D01*
X61390412Y-93560281D01*
X61464670Y-93599973D01*
X61468878Y-93602495D01*
X61538888Y-93649274D01*
X61542830Y-93652197D01*
X61607918Y-93705613D01*
X61611553Y-93708909D01*
X61671091Y-93768447D01*
X61674387Y-93772082D01*
X61727803Y-93837170D01*
X61730726Y-93841112D01*
X61777505Y-93911122D01*
X61780027Y-93915330D01*
X61819719Y-93989588D01*
X61821817Y-93994024D01*
X61854039Y-94071815D01*
X61855692Y-94076435D01*
X61880134Y-94157009D01*
X61881326Y-94161769D01*
X61897752Y-94244351D01*
X61898472Y-94249204D01*
X61906726Y-94332999D01*
X61906967Y-94337900D01*
X61906967Y-94422100D01*
X61906726Y-94427001D01*
X61898472Y-94510796D01*
X61897752Y-94515649D01*
X61881326Y-94598231D01*
X61880134Y-94602991D01*
X61855692Y-94683565D01*
X61854039Y-94688185D01*
X61821817Y-94765976D01*
X61819719Y-94770412D01*
X61800000Y-94807303D01*
X61800000Y-97190000D01*
X61799039Y-97199755D01*
X61796194Y-97209134D01*
X61791573Y-97217779D01*
X61785355Y-97225355D01*
X61777779Y-97231573D01*
X61769134Y-97236194D01*
X61759755Y-97239039D01*
X61750000Y-97240000D01*
X60250000Y-97240000D01*
X60240245Y-97239039D01*
X60230866Y-97236194D01*
X60222221Y-97231573D01*
X60214645Y-97225355D01*
X60208427Y-97217779D01*
X60203806Y-97209134D01*
X60200961Y-97199755D01*
X60200000Y-97190000D01*
X60200000Y-94807303D01*
X60180281Y-94770412D01*
X60178183Y-94765976D01*
X60145961Y-94688185D01*
X60144308Y-94683565D01*
X60119866Y-94602991D01*
X60118674Y-94598231D01*
X60102248Y-94515649D01*
X60101528Y-94510796D01*
X60093274Y-94427001D01*
X60093033Y-94422100D01*
X60093033Y-94337900D01*
X60093274Y-94332999D01*
X60101528Y-94249204D01*
X60102248Y-94244351D01*
X60118674Y-94161769D01*
X60119866Y-94157009D01*
X60144308Y-94076435D01*
X60145961Y-94071815D01*
X60178183Y-93994024D01*
X60180281Y-93989588D01*
X60219973Y-93915330D01*
X60222495Y-93911122D01*
X60269274Y-93841112D01*
X60272197Y-93837170D01*
X60325613Y-93772082D01*
X60328909Y-93768447D01*
X60388447Y-93708909D01*
X60392082Y-93705613D01*
X60457170Y-93652197D01*
X60461112Y-93649274D01*
X60531122Y-93602495D01*
X60535330Y-93599973D01*
X60609588Y-93560281D01*
X60614024Y-93558183D01*
X60691815Y-93525961D01*
X60696435Y-93524308D01*
X60777009Y-93499866D01*
X60781769Y-93498674D01*
X60864351Y-93482248D01*
X60869204Y-93481528D01*
X60952999Y-93473274D01*
X60957900Y-93473033D01*
X61042100Y-93473033D01*
X61047001Y-93473274D01*
G37*
G36*
X60952999Y-102906726D02*
G01*
X60869204Y-102898472D01*
X60864351Y-102897752D01*
X60781769Y-102881326D01*
X60777009Y-102880134D01*
X60696435Y-102855692D01*
X60691815Y-102854039D01*
X60614024Y-102821817D01*
X60609588Y-102819719D01*
X60535330Y-102780027D01*
X60531122Y-102777505D01*
X60461112Y-102730726D01*
X60457170Y-102727803D01*
X60392082Y-102674387D01*
X60388447Y-102671091D01*
X60328909Y-102611553D01*
X60325613Y-102607918D01*
X60272197Y-102542830D01*
X60269274Y-102538888D01*
X60222495Y-102468878D01*
X60219973Y-102464670D01*
X60180281Y-102390412D01*
X60178183Y-102385976D01*
X60145961Y-102308185D01*
X60144308Y-102303565D01*
X60119866Y-102222991D01*
X60118674Y-102218231D01*
X60102248Y-102135649D01*
X60101528Y-102130796D01*
X60093274Y-102047001D01*
X60093033Y-102042100D01*
X60093033Y-101957900D01*
X60093274Y-101952999D01*
X60101528Y-101869204D01*
X60102248Y-101864351D01*
X60118674Y-101781769D01*
X60119866Y-101777009D01*
X60144308Y-101696435D01*
X60145961Y-101691815D01*
X60178183Y-101614024D01*
X60180281Y-101609588D01*
X60200000Y-101572697D01*
X60200000Y-99190000D01*
X60200961Y-99180245D01*
X60203806Y-99170866D01*
X60208427Y-99162221D01*
X60214645Y-99154645D01*
X60222221Y-99148427D01*
X60230866Y-99143806D01*
X60240245Y-99140961D01*
X60250000Y-99140000D01*
X61750000Y-99140000D01*
X61759755Y-99140961D01*
X61769134Y-99143806D01*
X61777779Y-99148427D01*
X61785355Y-99154645D01*
X61791573Y-99162221D01*
X61796194Y-99170866D01*
X61799039Y-99180245D01*
X61800000Y-99190000D01*
X61800000Y-101572697D01*
X61819719Y-101609588D01*
X61821817Y-101614024D01*
X61854039Y-101691815D01*
X61855692Y-101696435D01*
X61880134Y-101777009D01*
X61881326Y-101781769D01*
X61897752Y-101864351D01*
X61898472Y-101869204D01*
X61906726Y-101952999D01*
X61906967Y-101957900D01*
X61906967Y-102042100D01*
X61906726Y-102047001D01*
X61898472Y-102130796D01*
X61897752Y-102135649D01*
X61881326Y-102218231D01*
X61880134Y-102222991D01*
X61855692Y-102303565D01*
X61854039Y-102308185D01*
X61821817Y-102385976D01*
X61819719Y-102390412D01*
X61780027Y-102464670D01*
X61777505Y-102468878D01*
X61730726Y-102538888D01*
X61727803Y-102542830D01*
X61674387Y-102607918D01*
X61671091Y-102611553D01*
X61611553Y-102671091D01*
X61607918Y-102674387D01*
X61542830Y-102727803D01*
X61538888Y-102730726D01*
X61468878Y-102777505D01*
X61464670Y-102780027D01*
X61390412Y-102819719D01*
X61385976Y-102821817D01*
X61308185Y-102854039D01*
X61303565Y-102855692D01*
X61222991Y-102880134D01*
X61218231Y-102881326D01*
X61135649Y-102897752D01*
X61130796Y-102898472D01*
X61047001Y-102906726D01*
X61042100Y-102906967D01*
X60957900Y-102906967D01*
X60952999Y-102906726D01*
G37*
%TD*%
%TO.C,D5*%
G36*
X120547001Y-69973274D02*
G01*
X120630796Y-69981528D01*
X120635649Y-69982248D01*
X120718231Y-69998674D01*
X120722991Y-69999866D01*
X120803565Y-70024308D01*
X120808185Y-70025961D01*
X120885976Y-70058183D01*
X120890412Y-70060281D01*
X120964670Y-70099973D01*
X120968878Y-70102495D01*
X121038888Y-70149274D01*
X121042830Y-70152197D01*
X121107918Y-70205613D01*
X121111553Y-70208909D01*
X121171091Y-70268447D01*
X121174387Y-70272082D01*
X121227803Y-70337170D01*
X121230726Y-70341112D01*
X121277505Y-70411122D01*
X121280027Y-70415330D01*
X121319719Y-70489588D01*
X121321817Y-70494024D01*
X121354039Y-70571815D01*
X121355692Y-70576435D01*
X121380134Y-70657009D01*
X121381326Y-70661769D01*
X121397752Y-70744351D01*
X121398472Y-70749204D01*
X121406726Y-70832999D01*
X121406967Y-70837900D01*
X121406967Y-70922100D01*
X121406726Y-70927001D01*
X121398472Y-71010796D01*
X121397752Y-71015649D01*
X121381326Y-71098231D01*
X121380134Y-71102991D01*
X121355692Y-71183565D01*
X121354039Y-71188185D01*
X121321817Y-71265976D01*
X121319719Y-71270412D01*
X121300000Y-71307303D01*
X121300000Y-73690000D01*
X121299039Y-73699755D01*
X121296194Y-73709134D01*
X121291573Y-73717779D01*
X121285355Y-73725355D01*
X121277779Y-73731573D01*
X121269134Y-73736194D01*
X121259755Y-73739039D01*
X121250000Y-73740000D01*
X119750000Y-73740000D01*
X119740245Y-73739039D01*
X119730866Y-73736194D01*
X119722221Y-73731573D01*
X119714645Y-73725355D01*
X119708427Y-73717779D01*
X119703806Y-73709134D01*
X119700961Y-73699755D01*
X119700000Y-73690000D01*
X119700000Y-71307303D01*
X119680281Y-71270412D01*
X119678183Y-71265976D01*
X119645961Y-71188185D01*
X119644308Y-71183565D01*
X119619866Y-71102991D01*
X119618674Y-71098231D01*
X119602248Y-71015649D01*
X119601528Y-71010796D01*
X119593274Y-70927001D01*
X119593033Y-70922100D01*
X119593033Y-70837900D01*
X119593274Y-70832999D01*
X119601528Y-70749204D01*
X119602248Y-70744351D01*
X119618674Y-70661769D01*
X119619866Y-70657009D01*
X119644308Y-70576435D01*
X119645961Y-70571815D01*
X119678183Y-70494024D01*
X119680281Y-70489588D01*
X119719973Y-70415330D01*
X119722495Y-70411122D01*
X119769274Y-70341112D01*
X119772197Y-70337170D01*
X119825613Y-70272082D01*
X119828909Y-70268447D01*
X119888447Y-70208909D01*
X119892082Y-70205613D01*
X119957170Y-70152197D01*
X119961112Y-70149274D01*
X120031122Y-70102495D01*
X120035330Y-70099973D01*
X120109588Y-70060281D01*
X120114024Y-70058183D01*
X120191815Y-70025961D01*
X120196435Y-70024308D01*
X120277009Y-69999866D01*
X120281769Y-69998674D01*
X120364351Y-69982248D01*
X120369204Y-69981528D01*
X120452999Y-69973274D01*
X120457900Y-69973033D01*
X120542100Y-69973033D01*
X120547001Y-69973274D01*
G37*
G36*
X120452999Y-79406726D02*
G01*
X120369204Y-79398472D01*
X120364351Y-79397752D01*
X120281769Y-79381326D01*
X120277009Y-79380134D01*
X120196435Y-79355692D01*
X120191815Y-79354039D01*
X120114024Y-79321817D01*
X120109588Y-79319719D01*
X120035330Y-79280027D01*
X120031122Y-79277505D01*
X119961112Y-79230726D01*
X119957170Y-79227803D01*
X119892082Y-79174387D01*
X119888447Y-79171091D01*
X119828909Y-79111553D01*
X119825613Y-79107918D01*
X119772197Y-79042830D01*
X119769274Y-79038888D01*
X119722495Y-78968878D01*
X119719973Y-78964670D01*
X119680281Y-78890412D01*
X119678183Y-78885976D01*
X119645961Y-78808185D01*
X119644308Y-78803565D01*
X119619866Y-78722991D01*
X119618674Y-78718231D01*
X119602248Y-78635649D01*
X119601528Y-78630796D01*
X119593274Y-78547001D01*
X119593033Y-78542100D01*
X119593033Y-78457900D01*
X119593274Y-78452999D01*
X119601528Y-78369204D01*
X119602248Y-78364351D01*
X119618674Y-78281769D01*
X119619866Y-78277009D01*
X119644308Y-78196435D01*
X119645961Y-78191815D01*
X119678183Y-78114024D01*
X119680281Y-78109588D01*
X119700000Y-78072697D01*
X119700000Y-75690000D01*
X119700961Y-75680245D01*
X119703806Y-75670866D01*
X119708427Y-75662221D01*
X119714645Y-75654645D01*
X119722221Y-75648427D01*
X119730866Y-75643806D01*
X119740245Y-75640961D01*
X119750000Y-75640000D01*
X121250000Y-75640000D01*
X121259755Y-75640961D01*
X121269134Y-75643806D01*
X121277779Y-75648427D01*
X121285355Y-75654645D01*
X121291573Y-75662221D01*
X121296194Y-75670866D01*
X121299039Y-75680245D01*
X121300000Y-75690000D01*
X121300000Y-78072697D01*
X121319719Y-78109588D01*
X121321817Y-78114024D01*
X121354039Y-78191815D01*
X121355692Y-78196435D01*
X121380134Y-78277009D01*
X121381326Y-78281769D01*
X121397752Y-78364351D01*
X121398472Y-78369204D01*
X121406726Y-78452999D01*
X121406967Y-78457900D01*
X121406967Y-78542100D01*
X121406726Y-78547001D01*
X121398472Y-78630796D01*
X121397752Y-78635649D01*
X121381326Y-78718231D01*
X121380134Y-78722991D01*
X121355692Y-78803565D01*
X121354039Y-78808185D01*
X121321817Y-78885976D01*
X121319719Y-78890412D01*
X121280027Y-78964670D01*
X121277505Y-78968878D01*
X121230726Y-79038888D01*
X121227803Y-79042830D01*
X121174387Y-79107918D01*
X121171091Y-79111553D01*
X121111553Y-79171091D01*
X121107918Y-79174387D01*
X121042830Y-79227803D01*
X121038888Y-79230726D01*
X120968878Y-79277505D01*
X120964670Y-79280027D01*
X120890412Y-79319719D01*
X120885976Y-79321817D01*
X120808185Y-79354039D01*
X120803565Y-79355692D01*
X120722991Y-79380134D01*
X120718231Y-79381326D01*
X120635649Y-79397752D01*
X120630796Y-79398472D01*
X120547001Y-79406726D01*
X120542100Y-79406967D01*
X120457900Y-79406967D01*
X120452999Y-79406726D01*
G37*
%TD*%
%TO.C,D4*%
G36*
X98547001Y-68973274D02*
G01*
X98630796Y-68981528D01*
X98635649Y-68982248D01*
X98718231Y-68998674D01*
X98722991Y-68999866D01*
X98803565Y-69024308D01*
X98808185Y-69025961D01*
X98885976Y-69058183D01*
X98890412Y-69060281D01*
X98964670Y-69099973D01*
X98968878Y-69102495D01*
X99038888Y-69149274D01*
X99042830Y-69152197D01*
X99107918Y-69205613D01*
X99111553Y-69208909D01*
X99171091Y-69268447D01*
X99174387Y-69272082D01*
X99227803Y-69337170D01*
X99230726Y-69341112D01*
X99277505Y-69411122D01*
X99280027Y-69415330D01*
X99319719Y-69489588D01*
X99321817Y-69494024D01*
X99354039Y-69571815D01*
X99355692Y-69576435D01*
X99380134Y-69657009D01*
X99381326Y-69661769D01*
X99397752Y-69744351D01*
X99398472Y-69749204D01*
X99406726Y-69832999D01*
X99406967Y-69837900D01*
X99406967Y-69922100D01*
X99406726Y-69927001D01*
X99398472Y-70010796D01*
X99397752Y-70015649D01*
X99381326Y-70098231D01*
X99380134Y-70102991D01*
X99355692Y-70183565D01*
X99354039Y-70188185D01*
X99321817Y-70265976D01*
X99319719Y-70270412D01*
X99300000Y-70307303D01*
X99300000Y-72690000D01*
X99299039Y-72699755D01*
X99296194Y-72709134D01*
X99291573Y-72717779D01*
X99285355Y-72725355D01*
X99277779Y-72731573D01*
X99269134Y-72736194D01*
X99259755Y-72739039D01*
X99250000Y-72740000D01*
X97750000Y-72740000D01*
X97740245Y-72739039D01*
X97730866Y-72736194D01*
X97722221Y-72731573D01*
X97714645Y-72725355D01*
X97708427Y-72717779D01*
X97703806Y-72709134D01*
X97700961Y-72699755D01*
X97700000Y-72690000D01*
X97700000Y-70307303D01*
X97680281Y-70270412D01*
X97678183Y-70265976D01*
X97645961Y-70188185D01*
X97644308Y-70183565D01*
X97619866Y-70102991D01*
X97618674Y-70098231D01*
X97602248Y-70015649D01*
X97601528Y-70010796D01*
X97593274Y-69927001D01*
X97593033Y-69922100D01*
X97593033Y-69837900D01*
X97593274Y-69832999D01*
X97601528Y-69749204D01*
X97602248Y-69744351D01*
X97618674Y-69661769D01*
X97619866Y-69657009D01*
X97644308Y-69576435D01*
X97645961Y-69571815D01*
X97678183Y-69494024D01*
X97680281Y-69489588D01*
X97719973Y-69415330D01*
X97722495Y-69411122D01*
X97769274Y-69341112D01*
X97772197Y-69337170D01*
X97825613Y-69272082D01*
X97828909Y-69268447D01*
X97888447Y-69208909D01*
X97892082Y-69205613D01*
X97957170Y-69152197D01*
X97961112Y-69149274D01*
X98031122Y-69102495D01*
X98035330Y-69099973D01*
X98109588Y-69060281D01*
X98114024Y-69058183D01*
X98191815Y-69025961D01*
X98196435Y-69024308D01*
X98277009Y-68999866D01*
X98281769Y-68998674D01*
X98364351Y-68982248D01*
X98369204Y-68981528D01*
X98452999Y-68973274D01*
X98457900Y-68973033D01*
X98542100Y-68973033D01*
X98547001Y-68973274D01*
G37*
G36*
X98452999Y-78406726D02*
G01*
X98369204Y-78398472D01*
X98364351Y-78397752D01*
X98281769Y-78381326D01*
X98277009Y-78380134D01*
X98196435Y-78355692D01*
X98191815Y-78354039D01*
X98114024Y-78321817D01*
X98109588Y-78319719D01*
X98035330Y-78280027D01*
X98031122Y-78277505D01*
X97961112Y-78230726D01*
X97957170Y-78227803D01*
X97892082Y-78174387D01*
X97888447Y-78171091D01*
X97828909Y-78111553D01*
X97825613Y-78107918D01*
X97772197Y-78042830D01*
X97769274Y-78038888D01*
X97722495Y-77968878D01*
X97719973Y-77964670D01*
X97680281Y-77890412D01*
X97678183Y-77885976D01*
X97645961Y-77808185D01*
X97644308Y-77803565D01*
X97619866Y-77722991D01*
X97618674Y-77718231D01*
X97602248Y-77635649D01*
X97601528Y-77630796D01*
X97593274Y-77547001D01*
X97593033Y-77542100D01*
X97593033Y-77457900D01*
X97593274Y-77452999D01*
X97601528Y-77369204D01*
X97602248Y-77364351D01*
X97618674Y-77281769D01*
X97619866Y-77277009D01*
X97644308Y-77196435D01*
X97645961Y-77191815D01*
X97678183Y-77114024D01*
X97680281Y-77109588D01*
X97700000Y-77072697D01*
X97700000Y-74690000D01*
X97700961Y-74680245D01*
X97703806Y-74670866D01*
X97708427Y-74662221D01*
X97714645Y-74654645D01*
X97722221Y-74648427D01*
X97730866Y-74643806D01*
X97740245Y-74640961D01*
X97750000Y-74640000D01*
X99250000Y-74640000D01*
X99259755Y-74640961D01*
X99269134Y-74643806D01*
X99277779Y-74648427D01*
X99285355Y-74654645D01*
X99291573Y-74662221D01*
X99296194Y-74670866D01*
X99299039Y-74680245D01*
X99300000Y-74690000D01*
X99300000Y-77072697D01*
X99319719Y-77109588D01*
X99321817Y-77114024D01*
X99354039Y-77191815D01*
X99355692Y-77196435D01*
X99380134Y-77277009D01*
X99381326Y-77281769D01*
X99397752Y-77364351D01*
X99398472Y-77369204D01*
X99406726Y-77452999D01*
X99406967Y-77457900D01*
X99406967Y-77542100D01*
X99406726Y-77547001D01*
X99398472Y-77630796D01*
X99397752Y-77635649D01*
X99381326Y-77718231D01*
X99380134Y-77722991D01*
X99355692Y-77803565D01*
X99354039Y-77808185D01*
X99321817Y-77885976D01*
X99319719Y-77890412D01*
X99280027Y-77964670D01*
X99277505Y-77968878D01*
X99230726Y-78038888D01*
X99227803Y-78042830D01*
X99174387Y-78107918D01*
X99171091Y-78111553D01*
X99111553Y-78171091D01*
X99107918Y-78174387D01*
X99042830Y-78227803D01*
X99038888Y-78230726D01*
X98968878Y-78277505D01*
X98964670Y-78280027D01*
X98890412Y-78319719D01*
X98885976Y-78321817D01*
X98808185Y-78354039D01*
X98803565Y-78355692D01*
X98722991Y-78380134D01*
X98718231Y-78381326D01*
X98635649Y-78397752D01*
X98630796Y-78398472D01*
X98547001Y-78406726D01*
X98542100Y-78406967D01*
X98457900Y-78406967D01*
X98452999Y-78406726D01*
G37*
%TD*%
%TO.C,D3*%
G36*
X82047001Y-68973274D02*
G01*
X82130796Y-68981528D01*
X82135649Y-68982248D01*
X82218231Y-68998674D01*
X82222991Y-68999866D01*
X82303565Y-69024308D01*
X82308185Y-69025961D01*
X82385976Y-69058183D01*
X82390412Y-69060281D01*
X82464670Y-69099973D01*
X82468878Y-69102495D01*
X82538888Y-69149274D01*
X82542830Y-69152197D01*
X82607918Y-69205613D01*
X82611553Y-69208909D01*
X82671091Y-69268447D01*
X82674387Y-69272082D01*
X82727803Y-69337170D01*
X82730726Y-69341112D01*
X82777505Y-69411122D01*
X82780027Y-69415330D01*
X82819719Y-69489588D01*
X82821817Y-69494024D01*
X82854039Y-69571815D01*
X82855692Y-69576435D01*
X82880134Y-69657009D01*
X82881326Y-69661769D01*
X82897752Y-69744351D01*
X82898472Y-69749204D01*
X82906726Y-69832999D01*
X82906967Y-69837900D01*
X82906967Y-69922100D01*
X82906726Y-69927001D01*
X82898472Y-70010796D01*
X82897752Y-70015649D01*
X82881326Y-70098231D01*
X82880134Y-70102991D01*
X82855692Y-70183565D01*
X82854039Y-70188185D01*
X82821817Y-70265976D01*
X82819719Y-70270412D01*
X82800000Y-70307303D01*
X82800000Y-72690000D01*
X82799039Y-72699755D01*
X82796194Y-72709134D01*
X82791573Y-72717779D01*
X82785355Y-72725355D01*
X82777779Y-72731573D01*
X82769134Y-72736194D01*
X82759755Y-72739039D01*
X82750000Y-72740000D01*
X81250000Y-72740000D01*
X81240245Y-72739039D01*
X81230866Y-72736194D01*
X81222221Y-72731573D01*
X81214645Y-72725355D01*
X81208427Y-72717779D01*
X81203806Y-72709134D01*
X81200961Y-72699755D01*
X81200000Y-72690000D01*
X81200000Y-70307303D01*
X81180281Y-70270412D01*
X81178183Y-70265976D01*
X81145961Y-70188185D01*
X81144308Y-70183565D01*
X81119866Y-70102991D01*
X81118674Y-70098231D01*
X81102248Y-70015649D01*
X81101528Y-70010796D01*
X81093274Y-69927001D01*
X81093033Y-69922100D01*
X81093033Y-69837900D01*
X81093274Y-69832999D01*
X81101528Y-69749204D01*
X81102248Y-69744351D01*
X81118674Y-69661769D01*
X81119866Y-69657009D01*
X81144308Y-69576435D01*
X81145961Y-69571815D01*
X81178183Y-69494024D01*
X81180281Y-69489588D01*
X81219973Y-69415330D01*
X81222495Y-69411122D01*
X81269274Y-69341112D01*
X81272197Y-69337170D01*
X81325613Y-69272082D01*
X81328909Y-69268447D01*
X81388447Y-69208909D01*
X81392082Y-69205613D01*
X81457170Y-69152197D01*
X81461112Y-69149274D01*
X81531122Y-69102495D01*
X81535330Y-69099973D01*
X81609588Y-69060281D01*
X81614024Y-69058183D01*
X81691815Y-69025961D01*
X81696435Y-69024308D01*
X81777009Y-68999866D01*
X81781769Y-68998674D01*
X81864351Y-68982248D01*
X81869204Y-68981528D01*
X81952999Y-68973274D01*
X81957900Y-68973033D01*
X82042100Y-68973033D01*
X82047001Y-68973274D01*
G37*
G36*
X81952999Y-78406726D02*
G01*
X81869204Y-78398472D01*
X81864351Y-78397752D01*
X81781769Y-78381326D01*
X81777009Y-78380134D01*
X81696435Y-78355692D01*
X81691815Y-78354039D01*
X81614024Y-78321817D01*
X81609588Y-78319719D01*
X81535330Y-78280027D01*
X81531122Y-78277505D01*
X81461112Y-78230726D01*
X81457170Y-78227803D01*
X81392082Y-78174387D01*
X81388447Y-78171091D01*
X81328909Y-78111553D01*
X81325613Y-78107918D01*
X81272197Y-78042830D01*
X81269274Y-78038888D01*
X81222495Y-77968878D01*
X81219973Y-77964670D01*
X81180281Y-77890412D01*
X81178183Y-77885976D01*
X81145961Y-77808185D01*
X81144308Y-77803565D01*
X81119866Y-77722991D01*
X81118674Y-77718231D01*
X81102248Y-77635649D01*
X81101528Y-77630796D01*
X81093274Y-77547001D01*
X81093033Y-77542100D01*
X81093033Y-77457900D01*
X81093274Y-77452999D01*
X81101528Y-77369204D01*
X81102248Y-77364351D01*
X81118674Y-77281769D01*
X81119866Y-77277009D01*
X81144308Y-77196435D01*
X81145961Y-77191815D01*
X81178183Y-77114024D01*
X81180281Y-77109588D01*
X81200000Y-77072697D01*
X81200000Y-74690000D01*
X81200961Y-74680245D01*
X81203806Y-74670866D01*
X81208427Y-74662221D01*
X81214645Y-74654645D01*
X81222221Y-74648427D01*
X81230866Y-74643806D01*
X81240245Y-74640961D01*
X81250000Y-74640000D01*
X82750000Y-74640000D01*
X82759755Y-74640961D01*
X82769134Y-74643806D01*
X82777779Y-74648427D01*
X82785355Y-74654645D01*
X82791573Y-74662221D01*
X82796194Y-74670866D01*
X82799039Y-74680245D01*
X82800000Y-74690000D01*
X82800000Y-77072697D01*
X82819719Y-77109588D01*
X82821817Y-77114024D01*
X82854039Y-77191815D01*
X82855692Y-77196435D01*
X82880134Y-77277009D01*
X82881326Y-77281769D01*
X82897752Y-77364351D01*
X82898472Y-77369204D01*
X82906726Y-77452999D01*
X82906967Y-77457900D01*
X82906967Y-77542100D01*
X82906726Y-77547001D01*
X82898472Y-77630796D01*
X82897752Y-77635649D01*
X82881326Y-77718231D01*
X82880134Y-77722991D01*
X82855692Y-77803565D01*
X82854039Y-77808185D01*
X82821817Y-77885976D01*
X82819719Y-77890412D01*
X82780027Y-77964670D01*
X82777505Y-77968878D01*
X82730726Y-78038888D01*
X82727803Y-78042830D01*
X82674387Y-78107918D01*
X82671091Y-78111553D01*
X82611553Y-78171091D01*
X82607918Y-78174387D01*
X82542830Y-78227803D01*
X82538888Y-78230726D01*
X82468878Y-78277505D01*
X82464670Y-78280027D01*
X82390412Y-78319719D01*
X82385976Y-78321817D01*
X82308185Y-78354039D01*
X82303565Y-78355692D01*
X82222991Y-78380134D01*
X82218231Y-78381326D01*
X82135649Y-78397752D01*
X82130796Y-78398472D01*
X82047001Y-78406726D01*
X82042100Y-78406967D01*
X81957900Y-78406967D01*
X81952999Y-78406726D01*
G37*
%TD*%
%TO.C,D2*%
G36*
X79547001Y-68973274D02*
G01*
X79630796Y-68981528D01*
X79635649Y-68982248D01*
X79718231Y-68998674D01*
X79722991Y-68999866D01*
X79803565Y-69024308D01*
X79808185Y-69025961D01*
X79885976Y-69058183D01*
X79890412Y-69060281D01*
X79964670Y-69099973D01*
X79968878Y-69102495D01*
X80038888Y-69149274D01*
X80042830Y-69152197D01*
X80107918Y-69205613D01*
X80111553Y-69208909D01*
X80171091Y-69268447D01*
X80174387Y-69272082D01*
X80227803Y-69337170D01*
X80230726Y-69341112D01*
X80277505Y-69411122D01*
X80280027Y-69415330D01*
X80319719Y-69489588D01*
X80321817Y-69494024D01*
X80354039Y-69571815D01*
X80355692Y-69576435D01*
X80380134Y-69657009D01*
X80381326Y-69661769D01*
X80397752Y-69744351D01*
X80398472Y-69749204D01*
X80406726Y-69832999D01*
X80406967Y-69837900D01*
X80406967Y-69922100D01*
X80406726Y-69927001D01*
X80398472Y-70010796D01*
X80397752Y-70015649D01*
X80381326Y-70098231D01*
X80380134Y-70102991D01*
X80355692Y-70183565D01*
X80354039Y-70188185D01*
X80321817Y-70265976D01*
X80319719Y-70270412D01*
X80300000Y-70307303D01*
X80300000Y-72690000D01*
X80299039Y-72699755D01*
X80296194Y-72709134D01*
X80291573Y-72717779D01*
X80285355Y-72725355D01*
X80277779Y-72731573D01*
X80269134Y-72736194D01*
X80259755Y-72739039D01*
X80250000Y-72740000D01*
X78750000Y-72740000D01*
X78740245Y-72739039D01*
X78730866Y-72736194D01*
X78722221Y-72731573D01*
X78714645Y-72725355D01*
X78708427Y-72717779D01*
X78703806Y-72709134D01*
X78700961Y-72699755D01*
X78700000Y-72690000D01*
X78700000Y-70307303D01*
X78680281Y-70270412D01*
X78678183Y-70265976D01*
X78645961Y-70188185D01*
X78644308Y-70183565D01*
X78619866Y-70102991D01*
X78618674Y-70098231D01*
X78602248Y-70015649D01*
X78601528Y-70010796D01*
X78593274Y-69927001D01*
X78593033Y-69922100D01*
X78593033Y-69837900D01*
X78593274Y-69832999D01*
X78601528Y-69749204D01*
X78602248Y-69744351D01*
X78618674Y-69661769D01*
X78619866Y-69657009D01*
X78644308Y-69576435D01*
X78645961Y-69571815D01*
X78678183Y-69494024D01*
X78680281Y-69489588D01*
X78719973Y-69415330D01*
X78722495Y-69411122D01*
X78769274Y-69341112D01*
X78772197Y-69337170D01*
X78825613Y-69272082D01*
X78828909Y-69268447D01*
X78888447Y-69208909D01*
X78892082Y-69205613D01*
X78957170Y-69152197D01*
X78961112Y-69149274D01*
X79031122Y-69102495D01*
X79035330Y-69099973D01*
X79109588Y-69060281D01*
X79114024Y-69058183D01*
X79191815Y-69025961D01*
X79196435Y-69024308D01*
X79277009Y-68999866D01*
X79281769Y-68998674D01*
X79364351Y-68982248D01*
X79369204Y-68981528D01*
X79452999Y-68973274D01*
X79457900Y-68973033D01*
X79542100Y-68973033D01*
X79547001Y-68973274D01*
G37*
G36*
X79452999Y-78406726D02*
G01*
X79369204Y-78398472D01*
X79364351Y-78397752D01*
X79281769Y-78381326D01*
X79277009Y-78380134D01*
X79196435Y-78355692D01*
X79191815Y-78354039D01*
X79114024Y-78321817D01*
X79109588Y-78319719D01*
X79035330Y-78280027D01*
X79031122Y-78277505D01*
X78961112Y-78230726D01*
X78957170Y-78227803D01*
X78892082Y-78174387D01*
X78888447Y-78171091D01*
X78828909Y-78111553D01*
X78825613Y-78107918D01*
X78772197Y-78042830D01*
X78769274Y-78038888D01*
X78722495Y-77968878D01*
X78719973Y-77964670D01*
X78680281Y-77890412D01*
X78678183Y-77885976D01*
X78645961Y-77808185D01*
X78644308Y-77803565D01*
X78619866Y-77722991D01*
X78618674Y-77718231D01*
X78602248Y-77635649D01*
X78601528Y-77630796D01*
X78593274Y-77547001D01*
X78593033Y-77542100D01*
X78593033Y-77457900D01*
X78593274Y-77452999D01*
X78601528Y-77369204D01*
X78602248Y-77364351D01*
X78618674Y-77281769D01*
X78619866Y-77277009D01*
X78644308Y-77196435D01*
X78645961Y-77191815D01*
X78678183Y-77114024D01*
X78680281Y-77109588D01*
X78700000Y-77072697D01*
X78700000Y-74690000D01*
X78700961Y-74680245D01*
X78703806Y-74670866D01*
X78708427Y-74662221D01*
X78714645Y-74654645D01*
X78722221Y-74648427D01*
X78730866Y-74643806D01*
X78740245Y-74640961D01*
X78750000Y-74640000D01*
X80250000Y-74640000D01*
X80259755Y-74640961D01*
X80269134Y-74643806D01*
X80277779Y-74648427D01*
X80285355Y-74654645D01*
X80291573Y-74662221D01*
X80296194Y-74670866D01*
X80299039Y-74680245D01*
X80300000Y-74690000D01*
X80300000Y-77072697D01*
X80319719Y-77109588D01*
X80321817Y-77114024D01*
X80354039Y-77191815D01*
X80355692Y-77196435D01*
X80380134Y-77277009D01*
X80381326Y-77281769D01*
X80397752Y-77364351D01*
X80398472Y-77369204D01*
X80406726Y-77452999D01*
X80406967Y-77457900D01*
X80406967Y-77542100D01*
X80406726Y-77547001D01*
X80398472Y-77630796D01*
X80397752Y-77635649D01*
X80381326Y-77718231D01*
X80380134Y-77722991D01*
X80355692Y-77803565D01*
X80354039Y-77808185D01*
X80321817Y-77885976D01*
X80319719Y-77890412D01*
X80280027Y-77964670D01*
X80277505Y-77968878D01*
X80230726Y-78038888D01*
X80227803Y-78042830D01*
X80174387Y-78107918D01*
X80171091Y-78111553D01*
X80111553Y-78171091D01*
X80107918Y-78174387D01*
X80042830Y-78227803D01*
X80038888Y-78230726D01*
X79968878Y-78277505D01*
X79964670Y-78280027D01*
X79890412Y-78319719D01*
X79885976Y-78321817D01*
X79808185Y-78354039D01*
X79803565Y-78355692D01*
X79722991Y-78380134D01*
X79718231Y-78381326D01*
X79635649Y-78397752D01*
X79630796Y-78398472D01*
X79547001Y-78406726D01*
X79542100Y-78406967D01*
X79457900Y-78406967D01*
X79452999Y-78406726D01*
G37*
%TD*%
%TO.C,D1*%
G36*
X60547001Y-73473274D02*
G01*
X60630796Y-73481528D01*
X60635649Y-73482248D01*
X60718231Y-73498674D01*
X60722991Y-73499866D01*
X60803565Y-73524308D01*
X60808185Y-73525961D01*
X60885976Y-73558183D01*
X60890412Y-73560281D01*
X60964670Y-73599973D01*
X60968878Y-73602495D01*
X61038888Y-73649274D01*
X61042830Y-73652197D01*
X61107918Y-73705613D01*
X61111553Y-73708909D01*
X61171091Y-73768447D01*
X61174387Y-73772082D01*
X61227803Y-73837170D01*
X61230726Y-73841112D01*
X61277505Y-73911122D01*
X61280027Y-73915330D01*
X61319719Y-73989588D01*
X61321817Y-73994024D01*
X61354039Y-74071815D01*
X61355692Y-74076435D01*
X61380134Y-74157009D01*
X61381326Y-74161769D01*
X61397752Y-74244351D01*
X61398472Y-74249204D01*
X61406726Y-74332999D01*
X61406967Y-74337900D01*
X61406967Y-74422100D01*
X61406726Y-74427001D01*
X61398472Y-74510796D01*
X61397752Y-74515649D01*
X61381326Y-74598231D01*
X61380134Y-74602991D01*
X61355692Y-74683565D01*
X61354039Y-74688185D01*
X61321817Y-74765976D01*
X61319719Y-74770412D01*
X61300000Y-74807303D01*
X61300000Y-77190000D01*
X61299039Y-77199755D01*
X61296194Y-77209134D01*
X61291573Y-77217779D01*
X61285355Y-77225355D01*
X61277779Y-77231573D01*
X61269134Y-77236194D01*
X61259755Y-77239039D01*
X61250000Y-77240000D01*
X59750000Y-77240000D01*
X59740245Y-77239039D01*
X59730866Y-77236194D01*
X59722221Y-77231573D01*
X59714645Y-77225355D01*
X59708427Y-77217779D01*
X59703806Y-77209134D01*
X59700961Y-77199755D01*
X59700000Y-77190000D01*
X59700000Y-74807303D01*
X59680281Y-74770412D01*
X59678183Y-74765976D01*
X59645961Y-74688185D01*
X59644308Y-74683565D01*
X59619866Y-74602991D01*
X59618674Y-74598231D01*
X59602248Y-74515649D01*
X59601528Y-74510796D01*
X59593274Y-74427001D01*
X59593033Y-74422100D01*
X59593033Y-74337900D01*
X59593274Y-74332999D01*
X59601528Y-74249204D01*
X59602248Y-74244351D01*
X59618674Y-74161769D01*
X59619866Y-74157009D01*
X59644308Y-74076435D01*
X59645961Y-74071815D01*
X59678183Y-73994024D01*
X59680281Y-73989588D01*
X59719973Y-73915330D01*
X59722495Y-73911122D01*
X59769274Y-73841112D01*
X59772197Y-73837170D01*
X59825613Y-73772082D01*
X59828909Y-73768447D01*
X59888447Y-73708909D01*
X59892082Y-73705613D01*
X59957170Y-73652197D01*
X59961112Y-73649274D01*
X60031122Y-73602495D01*
X60035330Y-73599973D01*
X60109588Y-73560281D01*
X60114024Y-73558183D01*
X60191815Y-73525961D01*
X60196435Y-73524308D01*
X60277009Y-73499866D01*
X60281769Y-73498674D01*
X60364351Y-73482248D01*
X60369204Y-73481528D01*
X60452999Y-73473274D01*
X60457900Y-73473033D01*
X60542100Y-73473033D01*
X60547001Y-73473274D01*
G37*
G36*
X60452999Y-82906726D02*
G01*
X60369204Y-82898472D01*
X60364351Y-82897752D01*
X60281769Y-82881326D01*
X60277009Y-82880134D01*
X60196435Y-82855692D01*
X60191815Y-82854039D01*
X60114024Y-82821817D01*
X60109588Y-82819719D01*
X60035330Y-82780027D01*
X60031122Y-82777505D01*
X59961112Y-82730726D01*
X59957170Y-82727803D01*
X59892082Y-82674387D01*
X59888447Y-82671091D01*
X59828909Y-82611553D01*
X59825613Y-82607918D01*
X59772197Y-82542830D01*
X59769274Y-82538888D01*
X59722495Y-82468878D01*
X59719973Y-82464670D01*
X59680281Y-82390412D01*
X59678183Y-82385976D01*
X59645961Y-82308185D01*
X59644308Y-82303565D01*
X59619866Y-82222991D01*
X59618674Y-82218231D01*
X59602248Y-82135649D01*
X59601528Y-82130796D01*
X59593274Y-82047001D01*
X59593033Y-82042100D01*
X59593033Y-81957900D01*
X59593274Y-81952999D01*
X59601528Y-81869204D01*
X59602248Y-81864351D01*
X59618674Y-81781769D01*
X59619866Y-81777009D01*
X59644308Y-81696435D01*
X59645961Y-81691815D01*
X59678183Y-81614024D01*
X59680281Y-81609588D01*
X59700000Y-81572697D01*
X59700000Y-79190000D01*
X59700961Y-79180245D01*
X59703806Y-79170866D01*
X59708427Y-79162221D01*
X59714645Y-79154645D01*
X59722221Y-79148427D01*
X59730866Y-79143806D01*
X59740245Y-79140961D01*
X59750000Y-79140000D01*
X61250000Y-79140000D01*
X61259755Y-79140961D01*
X61269134Y-79143806D01*
X61277779Y-79148427D01*
X61285355Y-79154645D01*
X61291573Y-79162221D01*
X61296194Y-79170866D01*
X61299039Y-79180245D01*
X61300000Y-79190000D01*
X61300000Y-81572697D01*
X61319719Y-81609588D01*
X61321817Y-81614024D01*
X61354039Y-81691815D01*
X61355692Y-81696435D01*
X61380134Y-81777009D01*
X61381326Y-81781769D01*
X61397752Y-81864351D01*
X61398472Y-81869204D01*
X61406726Y-81952999D01*
X61406967Y-81957900D01*
X61406967Y-82042100D01*
X61406726Y-82047001D01*
X61398472Y-82130796D01*
X61397752Y-82135649D01*
X61381326Y-82218231D01*
X61380134Y-82222991D01*
X61355692Y-82303565D01*
X61354039Y-82308185D01*
X61321817Y-82385976D01*
X61319719Y-82390412D01*
X61280027Y-82464670D01*
X61277505Y-82468878D01*
X61230726Y-82538888D01*
X61227803Y-82542830D01*
X61174387Y-82607918D01*
X61171091Y-82611553D01*
X61111553Y-82671091D01*
X61107918Y-82674387D01*
X61042830Y-82727803D01*
X61038888Y-82730726D01*
X60968878Y-82777505D01*
X60964670Y-82780027D01*
X60890412Y-82819719D01*
X60885976Y-82821817D01*
X60808185Y-82854039D01*
X60803565Y-82855692D01*
X60722991Y-82880134D01*
X60718231Y-82881326D01*
X60635649Y-82897752D01*
X60630796Y-82898472D01*
X60547001Y-82906726D01*
X60542100Y-82906967D01*
X60457900Y-82906967D01*
X60452999Y-82906726D01*
G37*
%TD*%
D10*
%TO.C,H4*%
X62766726Y-69433274D03*
X61600000Y-68950000D03*
X60433274Y-69433274D03*
X59950000Y-70600000D03*
X60433274Y-71766726D03*
X61600000Y-72250000D03*
X62766726Y-71766726D03*
X63250000Y-70600000D03*
D11*
X61600000Y-70600000D03*
%TD*%
D10*
%TO.C,H3*%
X122466726Y-83733274D03*
X121300000Y-83250000D03*
X120133274Y-83733274D03*
X119650000Y-84900000D03*
X120133274Y-86066726D03*
X121300000Y-86550000D03*
X122466726Y-86066726D03*
X122950000Y-84900000D03*
D11*
X121300000Y-84900000D03*
%TD*%
D10*
%TO.C,H2*%
X62566726Y-105833274D03*
X61400000Y-105350000D03*
X60233274Y-105833274D03*
X59750000Y-107000000D03*
X60233274Y-108166726D03*
X61400000Y-108650000D03*
X62566726Y-108166726D03*
X63050000Y-107000000D03*
D11*
X61400000Y-107000000D03*
%TD*%
D10*
%TO.C,H1*%
X91466726Y-98433274D03*
X90300000Y-97950000D03*
X89133274Y-98433274D03*
X88650000Y-99600000D03*
X89133274Y-100766726D03*
X90300000Y-101250000D03*
X91466726Y-100766726D03*
X91950000Y-99600000D03*
D11*
X90300000Y-99600000D03*
%TD*%
D13*
%TO.C,SW19*%
X121600000Y-57200000D03*
X121600000Y-64800000D03*
%TD*%
D14*
%TO.C,J1*%
X127000000Y-61000000D03*
X133000000Y-61000000D03*
D15*
X127000000Y-64000000D03*
X130500000Y-64000000D03*
X133700000Y-64000000D03*
X127000000Y-58000000D03*
X130500000Y-58000000D03*
X133700000Y-58000000D03*
%TD*%
D16*
%TO.C,U1*%
X101760000Y-66500000D03*
X101760000Y-69040000D03*
X101760000Y-71580000D03*
X101760000Y-74120000D03*
X101760000Y-76660000D03*
X101760000Y-79200000D03*
X101760000Y-81740000D03*
X101760000Y-84280000D03*
X101760000Y-86820000D03*
X101760000Y-89360000D03*
X101760000Y-91900000D03*
X101760000Y-94440000D03*
X117000000Y-94440000D03*
X117000000Y-91900000D03*
X117000000Y-89360000D03*
X117000000Y-86820000D03*
X117000000Y-84280000D03*
X117000000Y-81740000D03*
X117000000Y-79200000D03*
X117000000Y-76660000D03*
X117000000Y-74120000D03*
X117000000Y-71580000D03*
X117000000Y-69040000D03*
G36*
G01*
X117812000Y-66094000D02*
X117812000Y-66906000D01*
G75*
G02*
X117406000Y-67312000I-406000J0D01*
G01*
X116594000Y-67312000D01*
G75*
G02*
X116188000Y-66906000I0J406000D01*
G01*
X116188000Y-66094000D01*
G75*
G02*
X116594000Y-65688000I406000J0D01*
G01*
X117406000Y-65688000D01*
G75*
G02*
X117812000Y-66094000I0J-406000D01*
G01*
G37*
%TD*%
D17*
%TO.C,SW18*%
X135295000Y-132612500D03*
X141645000Y-135152500D03*
D14*
X142915000Y-137692500D03*
X132755000Y-137692500D03*
D18*
X137835000Y-137692500D03*
D17*
X134025000Y-135152500D03*
X140375000Y-132612500D03*
%TD*%
%TO.C,SW17*%
X116245000Y-132612500D03*
X122595000Y-135152500D03*
D14*
X123865000Y-137692500D03*
X113705000Y-137692500D03*
D18*
X118785000Y-137692500D03*
D17*
X114975000Y-135152500D03*
X121325000Y-132612500D03*
%TD*%
%TO.C,SW16*%
X97195000Y-130326500D03*
X103545000Y-132866500D03*
D14*
X104815000Y-135406500D03*
X94655000Y-135406500D03*
D18*
X99735000Y-135406500D03*
D17*
X95925000Y-132866500D03*
X102275000Y-130326500D03*
%TD*%
%TO.C,SW15*%
X125770000Y-108800000D03*
X132120000Y-111340000D03*
D14*
X133390000Y-113880000D03*
X123230000Y-113880000D03*
D18*
X128310000Y-113880000D03*
D17*
X124500000Y-111340000D03*
X130850000Y-108800000D03*
%TD*%
%TO.C,SW14*%
X106720000Y-106514000D03*
X113070000Y-109054000D03*
D14*
X114340000Y-111594000D03*
X104180000Y-111594000D03*
D18*
X109260000Y-111594000D03*
D17*
X105450000Y-109054000D03*
X111800000Y-106514000D03*
%TD*%
%TO.C,SW13*%
X87670000Y-104037500D03*
X94020000Y-106577500D03*
D14*
X95290000Y-109117500D03*
X85130000Y-109117500D03*
D18*
X90210000Y-109117500D03*
D17*
X86400000Y-106577500D03*
X92750000Y-104037500D03*
%TD*%
%TO.C,SW12*%
X68620000Y-106514000D03*
X74970000Y-109054000D03*
D14*
X76240000Y-111594000D03*
X66080000Y-111594000D03*
D18*
X71160000Y-111594000D03*
D17*
X67350000Y-109054000D03*
X73700000Y-106514000D03*
%TD*%
%TO.C,SW11*%
X49570000Y-111276500D03*
X55920000Y-113816500D03*
D14*
X57190000Y-116356500D03*
X47030000Y-116356500D03*
D18*
X52110000Y-116356500D03*
D17*
X48300000Y-113816500D03*
X54650000Y-111276500D03*
%TD*%
%TO.C,SW10*%
X125770000Y-89750000D03*
X132120000Y-92290000D03*
D14*
X133390000Y-94830000D03*
X123230000Y-94830000D03*
D18*
X128310000Y-94830000D03*
D17*
X124500000Y-92290000D03*
X130850000Y-89750000D03*
%TD*%
%TO.C,SW9*%
X106720000Y-87464000D03*
X113070000Y-90004000D03*
D14*
X114340000Y-92544000D03*
X104180000Y-92544000D03*
D18*
X109260000Y-92544000D03*
D17*
X105450000Y-90004000D03*
X111800000Y-87464000D03*
%TD*%
%TO.C,SW8*%
X87670000Y-84987500D03*
X94020000Y-87527500D03*
D14*
X95290000Y-90067500D03*
X85130000Y-90067500D03*
D18*
X90210000Y-90067500D03*
D17*
X86400000Y-87527500D03*
X92750000Y-84987500D03*
%TD*%
%TO.C,SW7*%
X68620000Y-87464000D03*
X74970000Y-90004000D03*
D14*
X76240000Y-92544000D03*
X66080000Y-92544000D03*
D18*
X71160000Y-92544000D03*
D17*
X67350000Y-90004000D03*
X73700000Y-87464000D03*
%TD*%
%TO.C,SW6*%
X49570000Y-92226500D03*
X55920000Y-94766500D03*
D14*
X57190000Y-97306500D03*
X47030000Y-97306500D03*
D18*
X52110000Y-97306500D03*
D17*
X48300000Y-94766500D03*
X54650000Y-92226500D03*
%TD*%
%TO.C,SW5*%
X125770000Y-70700000D03*
X132120000Y-73240000D03*
D14*
X133390000Y-75780000D03*
X123230000Y-75780000D03*
D18*
X128310000Y-75780000D03*
D17*
X124500000Y-73240000D03*
X130850000Y-70700000D03*
%TD*%
%TO.C,SW4*%
X106720000Y-68414000D03*
X113070000Y-70954000D03*
D14*
X114340000Y-73494000D03*
X104180000Y-73494000D03*
D18*
X109260000Y-73494000D03*
D17*
X105450000Y-70954000D03*
X111800000Y-68414000D03*
%TD*%
%TO.C,SW3*%
X87670000Y-65937500D03*
X94020000Y-68477500D03*
D14*
X95290000Y-71017500D03*
X85130000Y-71017500D03*
D18*
X90210000Y-71017500D03*
D17*
X86400000Y-68477500D03*
X92750000Y-65937500D03*
%TD*%
%TO.C,SW2*%
X68620000Y-68414000D03*
X74970000Y-70954000D03*
D14*
X76240000Y-73494000D03*
X66080000Y-73494000D03*
D18*
X71160000Y-73494000D03*
D17*
X67350000Y-70954000D03*
X73700000Y-68414000D03*
%TD*%
%TO.C,SW1*%
X49570000Y-73176500D03*
X55920000Y-75716500D03*
D14*
X57190000Y-78256500D03*
X47030000Y-78256500D03*
D18*
X52110000Y-78256500D03*
D17*
X48300000Y-75716500D03*
X54650000Y-73176500D03*
%TD*%
M02*
